<svg width="289" height="397" viewBox="0 0 289 397" fill="none" xmlns="http://www.w3.org/2000/svg">
<path id="Vector 7" d="M148.7 396.5H140C131.9 396.5 125.4 390 125.4 381.9V357.6C125.4 349.5 131.9 343 140 343H148.7C156.8 343 163.3 349.5 163.3 357.6V381.9C163.3 390 156.7 396.5 148.7 396.5Z" fill="white"/>
<path id="Vector 9" d="M262.5 366.3H26.1C12 366.3 0.5 354.8 0.5 340.7V48.3C0.5 34.2 12 22.7 26.1 22.7H262.5C276.6 22.7 288.1 34.2 288.1 48.3V340.6C288.1 354.8 276.7 366.3 262.5 366.3Z" fill="white"/>
<path id="Vector 10" d="M174.8 0.199997H113.9V31.4H174.8V0.199997Z" fill="white"/>
<path id="Vector 11" d="M278.5 55.4V332.4C278.5 345.7 267.7 356.4 254.5 356.4H160C157.4 356.4 155.2 358.5 155.2 361.2V379.1C155.2 384.8 150.6 389.4 144.9 389.4H143.8C138.1 389.4 133.5 384.8 133.5 379.1V362C133.5 359 131 356.5 128 356.5H34.4C21.1 356.5 10.4 345.7 10.4 332.5V55.5C10.4 42.2 21.2 31.5 34.4 31.5H254.5C267.7 31.4 278.5 42.1 278.5 55.4Z" fill="#E85E53"/>
<path id="Vector 12" d="M278.5 55.4V332.4C278.5 345.7 267.7 356.4 254.5 356.4H160C157.4 356.4 155.2 358.5 155.2 361.2V379.1C155.2 384.8 150.6 389.4 144.9 389.4H143.8C138.1 389.4 133.5 384.8 133.5 379.1V362C133.5 359 131 356.5 128 356.5H34.4C21.1 356.5 10.4 345.7 10.4 332.5V297.3C10.2 297.3 196.6 219.7 278.5 55.4Z" fill="#D14A42"/>
<path id="AB+" d="M115.68 230.4V237H88.08V230.4L96.48 227.16L90 209.52H54.6L48 227.28L56.52 230.4V237H30.96V230.4L39.24 226.68L66.6 154.44H80.04L107.4 226.56L115.68 230.4ZM86.88 201L72.36 161.64L57.72 201H86.88ZM123.202 230.4L132.082 226.68V165.72L123.202 162.24V155.4H172.042C179.322 155.4 184.682 157.16 188.122 160.68C191.642 164.12 193.402 169 193.402 175.32C193.402 180.84 192.242 185.32 189.922 188.76C187.682 192.12 184.442 194.36 180.202 195.48C184.682 196.2 188.202 198.24 190.762 201.6C193.322 204.88 194.602 209.64 194.602 215.88C194.602 222.84 192.842 228.12 189.322 231.72C185.802 235.24 180.602 237 173.722 237H123.202V230.4ZM169.762 191.64C174.402 191.64 177.682 190.6 179.602 188.52C181.602 186.36 182.602 182.8 182.602 177.84C182.602 172.96 181.682 169.44 179.842 167.28C178.002 165.12 174.962 164.04 170.722 164.04H142.402V191.64H169.762ZM171.682 228.36C175.922 228.36 179.002 227.28 180.922 225.12C182.842 222.88 183.802 219.28 183.802 214.32C183.802 209.28 182.802 205.68 180.802 203.52C178.802 201.36 175.442 200.28 170.722 200.28H142.402V228.36H171.682ZM263.957 208.32H240.677V231.36H232.757V208.32H209.477V199.92H232.757V176.88H240.677V199.92H263.957V208.32Z" fill="white"/>
</svg>
