<svg width="289" height="397" viewBox="0 0 289 397" fill="none" xmlns="http://www.w3.org/2000/svg">
<path id="Vector 7" d="M148.7 396.5H140C131.9 396.5 125.4 390 125.4 381.9V357.6C125.4 349.5 131.9 343 140 343H148.7C156.8 343 163.3 349.5 163.3 357.6V381.9C163.3 390 156.7 396.5 148.7 396.5Z" fill="white"/>
<path id="Vector 9" d="M262.5 366.3H26.1C12 366.3 0.5 354.8 0.5 340.7V48.3C0.5 34.2 12 22.7 26.1 22.7H262.5C276.6 22.7 288.1 34.2 288.1 48.3V340.6C288.1 354.8 276.7 366.3 262.5 366.3Z" fill="white"/>
<path id="Vector 10" d="M174.8 0.199997H113.9V31.4H174.8V0.199997Z" fill="white"/>
<path id="Vector 11" d="M278.5 55.4V332.4C278.5 345.7 267.7 356.4 254.5 356.4H160C157.4 356.4 155.2 358.5 155.2 361.2V379.1C155.2 384.8 150.6 389.4 144.9 389.4H143.8C138.1 389.4 133.5 384.8 133.5 379.1V362C133.5 359 131 356.5 128 356.5H34.4C21.1 356.5 10.4 345.7 10.4 332.5V55.5C10.4 42.2 21.2 31.5 34.4 31.5H254.5C267.7 31.4 278.5 42.1 278.5 55.4Z" fill="#E85E53"/>
<path id="Vector 12" d="M278.5 55.4V332.4C278.5 345.7 267.7 356.4 254.5 356.4H160C157.4 356.4 155.2 358.5 155.2 361.2V379.1C155.2 384.8 150.6 389.4 144.9 389.4H143.8C138.1 389.4 133.5 384.8 133.5 379.1V362C133.5 359 131 356.5 128 356.5H34.4C21.1 356.5 10.4 345.7 10.4 332.5V297.3C10.2 297.3 196.6 219.7 278.5 55.4Z" fill="#D14A42"/>
<path id="A-" d="M177.24 236.2V245H140.44V236.2L151.64 231.88L143 208.36H95.8L87 232.04L98.36 236.2V245H64.28V236.2L75.32 231.24L111.8 134.92H129.72L166.2 231.08L177.24 236.2ZM138.84 197L119.48 144.52L99.96 197H138.84ZM232.166 203.72H184.006V190.6H232.166V203.72Z" fill="white"/>
</svg>
