<svg width="289" height="397" viewBox="0 0 289 397" fill="none" xmlns="http://www.w3.org/2000/svg">
<path id="Vector 7" d="M148.7 396.5H140C131.9 396.5 125.4 390 125.4 381.9V357.6C125.4 349.5 131.9 343 140 343H148.7C156.8 343 163.3 349.5 163.3 357.6V381.9C163.3 390 156.7 396.5 148.7 396.5Z" fill="white"/>
<path id="Vector 9" d="M262.5 366.3H26.1C12 366.3 0.5 354.8 0.5 340.7V48.3C0.5 34.2 12 22.7 26.1 22.7H262.5C276.6 22.7 288.1 34.2 288.1 48.3V340.6C288.1 354.8 276.7 366.3 262.5 366.3Z" fill="white"/>
<path id="Vector 10" d="M174.8 0.199997H113.9V31.4H174.8V0.199997Z" fill="white"/>
<path id="Vector 11" d="M278.5 55.4V332.4C278.5 345.7 267.7 356.4 254.5 356.4H160C157.4 356.4 155.2 358.5 155.2 361.2V379.1C155.2 384.8 150.6 389.4 144.9 389.4H143.8C138.1 389.4 133.5 384.8 133.5 379.1V362C133.5 359 131 356.5 128 356.5H34.4C21.1 356.5 10.4 345.7 10.4 332.5V55.5C10.4 42.2 21.2 31.5 34.4 31.5H254.5C267.7 31.4 278.5 42.1 278.5 55.4Z" fill="#E85E53"/>
<path id="Vector 12" d="M278.5 55.4V332.4C278.5 345.7 267.7 356.4 254.5 356.4H160C157.4 356.4 155.2 358.5 155.2 361.2V379.1C155.2 384.8 150.6 389.4 144.9 389.4H143.8C138.1 389.4 133.5 384.8 133.5 379.1V362C133.5 359 131 356.5 128 356.5H34.4C21.1 356.5 10.4 345.7 10.4 332.5V297.3C10.2 297.3 196.6 219.7 278.5 55.4Z" fill="#D14A42"/>
<path id="B-" d="M71.8 236.2L83.64 231.24V149.96L71.8 145.32V136.2H136.92C146.627 136.2 153.773 138.547 158.36 143.24C163.053 147.827 165.4 154.333 165.4 162.76C165.4 170.12 163.853 176.093 160.76 180.68C157.773 185.16 153.453 188.147 147.8 189.64C153.773 190.6 158.467 193.32 161.88 197.8C165.293 202.173 167 208.52 167 216.84C167 226.12 164.653 233.16 159.96 237.96C155.267 242.653 148.333 245 139.16 245H71.8V236.2ZM133.88 184.52C140.067 184.52 144.44 183.133 147 180.36C149.667 177.48 151 172.733 151 166.12C151 159.613 149.773 154.92 147.32 152.04C144.867 149.16 140.813 147.72 135.16 147.72H97.4V184.52H133.88ZM136.44 233.48C142.093 233.48 146.2 232.04 148.76 229.16C151.32 226.173 152.6 221.373 152.6 214.76C152.6 208.04 151.267 203.24 148.6 200.36C145.933 197.48 141.453 196.04 135.16 196.04H97.4V233.48H136.44ZM234.354 203.72H186.194V190.6H234.354V203.72Z" fill="white"/>
</svg>
