<svg width="289" height="397" viewBox="0 0 289 397" fill="none" xmlns="http://www.w3.org/2000/svg">
<path id="Vector 7" d="M148.7 396.5H140C131.9 396.5 125.4 390 125.4 381.9V357.6C125.4 349.5 131.9 343 140 343H148.7C156.8 343 163.3 349.5 163.3 357.6V381.9C163.3 390 156.7 396.5 148.7 396.5Z" fill="white"/>
<path id="Vector 9" d="M262.5 366.3H26.1C12 366.3 0.5 354.8 0.5 340.7V48.3C0.5 34.2 12 22.7 26.1 22.7H262.5C276.6 22.7 288.1 34.2 288.1 48.3V340.6C288.1 354.8 276.7 366.3 262.5 366.3Z" fill="white"/>
<path id="Vector 10" d="M174.8 0.199997H113.9V31.4H174.8V0.199997Z" fill="white"/>
<path id="Vector 11" d="M278.5 55.4V332.4C278.5 345.7 267.7 356.4 254.5 356.4H160C157.4 356.4 155.2 358.5 155.2 361.2V379.1C155.2 384.8 150.6 389.4 144.9 389.4H143.8C138.1 389.4 133.5 384.8 133.5 379.1V362C133.5 359 131 356.5 128 356.5H34.4C21.1 356.5 10.4 345.7 10.4 332.5V55.5C10.4 42.2 21.2 31.5 34.4 31.5H254.5C267.7 31.4 278.5 42.1 278.5 55.4Z" fill="#E85E53"/>
<path id="Vector 12" d="M278.5 55.4V332.4C278.5 345.7 267.7 356.4 254.5 356.4H160C157.4 356.4 155.2 358.5 155.2 361.2V379.1C155.2 384.8 150.6 389.4 144.9 389.4H143.8C138.1 389.4 133.5 384.8 133.5 379.1V362C133.5 359 131 356.5 128 356.5H34.4C21.1 356.5 10.4 345.7 10.4 332.5V297.3C10.2 297.3 196.6 219.7 278.5 55.4Z" fill="#D14A42"/>
<path id="O-" d="M129.24 134.28C145.453 134.28 158.093 138.973 167.16 148.36C176.227 157.64 180.76 171.72 180.76 190.6C180.76 209.48 176.227 223.613 167.16 233C158.093 242.28 145.453 246.92 129.24 246.92C113.027 246.92 100.387 242.28 91.32 233C82.2533 223.613 77.72 209.48 77.72 190.6C77.72 171.72 82.2533 157.64 91.32 148.36C100.387 138.973 113.027 134.28 129.24 134.28ZM129.24 146.12C120.6 146.12 113.56 147.56 108.12 150.44C102.787 153.32 98.7867 158.013 96.12 164.52C93.4533 171.027 92.12 179.72 92.12 190.6C92.12 201.48 93.4533 210.173 96.12 216.68C98.7867 223.187 102.787 227.88 108.12 230.76C113.56 233.64 120.6 235.08 129.24 235.08C137.88 235.08 144.867 233.64 150.2 230.76C155.64 227.88 159.693 223.187 162.36 216.68C165.027 210.173 166.36 201.48 166.36 190.6C166.36 179.72 165.027 171.027 162.36 164.52C159.693 158.013 155.64 153.32 150.2 150.44C144.867 147.56 137.88 146.12 129.24 146.12ZM250.01 203.72H201.85V190.6H250.01V203.72Z" fill="white"/>
</svg>
