<svg width="289" height="397" viewBox="0 0 289 397" fill="none" xmlns="http://www.w3.org/2000/svg">
<path id="Vector 7" d="M148.7 396.5H140C131.9 396.5 125.4 390 125.4 381.9V357.6C125.4 349.5 131.9 343 140 343H148.7C156.8 343 163.3 349.5 163.3 357.6V381.9C163.3 390 156.7 396.5 148.7 396.5Z" fill="white"/>
<path id="Vector 9" d="M262.5 366.3H26.1C12 366.3 0.5 354.8 0.5 340.7V48.3C0.5 34.2 12 22.7 26.1 22.7H262.5C276.6 22.7 288.1 34.2 288.1 48.3V340.6C288.1 354.8 276.7 366.3 262.5 366.3Z" fill="white"/>
<path id="Vector 10" d="M174.8 0.199997H113.9V31.4H174.8V0.199997Z" fill="white"/>
<path id="Vector 11" d="M278.5 55.4V332.4C278.5 345.7 267.7 356.4 254.5 356.4H160C157.4 356.4 155.2 358.5 155.2 361.2V379.1C155.2 384.8 150.6 389.4 144.9 389.4H143.8C138.1 389.4 133.5 384.8 133.5 379.1V362C133.5 359 131 356.5 128 356.5H34.4C21.1 356.5 10.4 345.7 10.4 332.5V55.5C10.4 42.2 21.2 31.5 34.4 31.5H254.5C267.7 31.4 278.5 42.1 278.5 55.4Z" fill="#E85E53"/>
<path id="Vector 12" d="M278.5 55.4V332.4C278.5 345.7 267.7 356.4 254.5 356.4H160C157.4 356.4 155.2 358.5 155.2 361.2V379.1C155.2 384.8 150.6 389.4 144.9 389.4H143.8C138.1 389.4 133.5 384.8 133.5 379.1V362C133.5 359 131 356.5 128 356.5H34.4C21.1 356.5 10.4 345.7 10.4 332.5V297.3C10.2 297.3 196.6 219.7 278.5 55.4Z" fill="#D14A42"/>
<path id="O+" d="M121.24 134.28C137.453 134.28 150.093 138.973 159.16 148.36C168.227 157.64 172.76 171.72 172.76 190.6C172.76 209.48 168.227 223.613 159.16 233C150.093 242.28 137.453 246.92 121.24 246.92C105.027 246.92 92.3867 242.28 83.32 233C74.2533 223.613 69.72 209.48 69.72 190.6C69.72 171.72 74.2533 157.64 83.32 148.36C92.3867 138.973 105.027 134.28 121.24 134.28ZM121.24 146.12C112.6 146.12 105.56 147.56 100.12 150.44C94.7867 153.32 90.7867 158.013 88.12 164.52C85.4533 171.027 84.12 179.72 84.12 190.6C84.12 201.48 85.4533 210.173 88.12 216.68C90.7867 223.187 94.7867 227.88 100.12 230.76C105.56 233.64 112.6 235.08 121.24 235.08C129.88 235.08 136.867 233.64 142.2 230.76C147.64 227.88 151.693 223.187 154.36 216.68C157.027 210.173 158.36 201.48 158.36 190.6C158.36 179.72 157.027 171.027 154.36 164.52C151.693 158.013 147.64 153.32 142.2 150.44C136.867 147.56 129.88 146.12 121.24 146.12ZM262.286 206.76H231.246V237.48H220.686V206.76H189.646V195.56H220.686V164.84H231.246V195.56H262.286V206.76Z" fill="white"/>
</svg>
