<?xml version="1.0" encoding="utf-8"?>

<svg version="1.1" xmlns="http://www.w3.org/2000/svg" width="3000" height="1600" xmlns:xlink="http://www.w3.org/1999/xlink" x="0px" y="0px"
	 viewBox="0 0 500 500" style="enable-background:new 0 0 500 500;" xml:space="preserve">
<style type="text/css">
	.st0{display:none;}
	.st1{fill:#457B9D;}
	.st2{fill:#A8DADC;}
	.st3{fill:#E63946;}
	.st4{fill:#D7FCCA;}
	.st5{opacity:0.5;}
	.st6{fill:#CAEEF9;}
	.st7{fill:#8E8E8E;}
	.st8{fill:#B7B7B7;}
	.st9{fill:#686868;}
	.st10{fill:#B5EAE0;}
	.st11{fill:#93CCC1;}
	.st12{fill:#FFC8BA;}
	.st13{fill:#3D342A;}
	.st14{fill:#CC6666;}
	.st15{fill:#92D0FF;}
	.st16{fill:#C0E1FF;}
	.st17{fill:#4B7FB7;}
	.st18{clip-path:url(#SVGID_2_);}
	.st19{clip-path:url(#SVGID_4_);}
	.st20{fill:#2D373D;}
	.st21{fill:#526168;}
	.st22{fill:#FFFFFF;}
	.st23{fill:#2B5A77;}
	.st24{fill:#BC4444;}
	.st25{fill:#B2695F;}
	.st26{fill:#417C60;}
	.st27{fill:#71AA91;}
	.st28{fill:#D18F82;}
	.st29{fill:#80C4A7;}
	.st30{fill:#3B2222;}
	.st31{fill:#FFD8CC;}
	.st32{fill:#8BD8B9;}
	.st33{fill:#6E3C3C;}
	.st34{fill:#A54C4C;}
	.st35{fill:#3F2215;}
</style>
<g id="BACKGROUND" class="st0">
</g>
<g id="Layer_4">
	<path class="st1" d="M10.6,393.2c1.4,22.4,35.3,23.7,35.3,23.7s29-31.7,35.7-31c6.6,0.7-19.9,32.5-19.9,32.5
		c12.3,4.3,47.3-4.7,47.3-4.7s5.9-43.7,12.2-41.3c6.3,2.4-7.1,38.4-7.1,38.4c12.9-1.1,27-13.8,27-13.8c18.8-21.7-8.1-47.6-8.1-47.6
		s2.4-15.1,14-30.3l0,0c0,0,2.5-2.7,5.4-7.6l-3.3-0.8c-0.4,0.9-0.9,1.8-1.4,2.6c0,0,0,0,0,0c0,0,0,0,0,0c-0.3,0.5-0.8,1.2-1.4,2.1
		c0,0,0,0,0,0c0,0,0,0,0,0c-1.4,1.9-2.4,3.3-3,4.4c0,0,0,0,0,0c-4.3,6-10.3,13.8-13.5,15c0,0,0.3,0.6,0.4,1.8
		c-0.1-0.6-0.3-1.2-0.4-1.8c-3.2-14.6-31.1-23.6-47.5-23.9c-16.4-0.3-10.4,6.2-3.4,16.2c7,9.9,25.2,12.1,29.9,16.5
		c4.7,4.4-3.6,5.6-13.9,2.2c-10.3-3.4-13.5-16.1-30.2-22c-16.7-5.8-36,25.9-36,25.9c12.5-1.1,32.2,11,32.2,15.6
		c0,4.6-31.1-3.3-36.1-3.2S9.2,370.8,10.6,393.2z"/>
	<path class="st2" d="M156.3,12.2c21.2-16.2,52,13.3,52,13.3s-2.9,50.6,3.5,56.1c6.4,5.4,11.6-43.1,11.6-43.1
		c14.6,7.7,37.1,46.1,37.1,46.1s-33.8,39.2-26.1,43c7.7,3.8,28.1-36.1,28.1-36.1c10.3,12.4,11.3,34.9,11.3,34.9
		c-3,33.7-49.5,29.6-49.5,29.6s-11.4,13.8-14.7,36l0,0c0,0-0.2,4.3-2.1,10.8l-3.6-2.4c0.4-1.1,0.8-2.2,1.1-3.3c0,0,0,0,0,0
		c0,0,0,0,0,0c0.2-0.7,0.4-1.7,0.7-2.9c0,0,0,0,0,0c0,0,0,0,0,0c0.5-2.7,0.9-4.7,1.3-6.1c0,0,0,0,0,0c1.7-8.5,3.4-19.9,1.5-23.7
		c0,0,0.8-0.3,2-1.1c-0.6,0.3-1.3,0.7-2,1.1c-15.8,8.4-48.3-9.6-62.9-24.1c-14.6-14.5-3.6-14.2,11.4-15.6
		c15-1.4,32.9,13.2,40.8,14.1c8,0.8,1.9-7.5-10.2-14.2c-12.1-6.6-26.2,0.4-46-10c-19.8-10.4-8.4-52.4-8.4-52.4
		c9.9,12.1,37.9,20.4,42,16.8c4.1-3.6-30.1-25.3-34.4-30C136.6,44.4,135.1,28.4,156.3,12.2z"/>
	<g id="XMLID_1_">
		<g>
			<path class="st3" d="M259.3,264c-15.3-19.3,5.7-57.6,24.7-74.7c19-17,20.5-3.8,25.2,14.2c4.7,18-13.8,39-13.6,48.5
				c0.2,9.5,11.5,2.5,19.2-11.8c7.7-14.3-5.3-31.4,6.7-54.8c11.9-23.4,76.3-8.4,76.3-8.4c-16.2,11.5-23.5,44.8-17.5,49.9
				c6,5,32.2-35.3,38.4-40.4c6.2-5,29.7-6.3,57.5,19.6c27.8,25.9-10.5,62-10.5,62s-75.8-5-82.7,2.5c-6.9,7.5,66.1,15.3,66.1,15.3
				c-8.8,17.3-61.9,43.1-61.9,43.1s-64.3-41.8-68.5-32.7c-4.2,9.1,58.6,34.8,58.6,34.8c-16.5,12-49.9,12.5-49.9,12.5
				c-50.6-4.6-52.7-60.4-52.7-60.4s-22.6-14.1-56.2-18.8c0,0-1.6-0.1-4.5-0.5c-2.9-0.4-7-1.1-11.9-2.3l2.9-4.2c1.7,0.5,3.4,1,5,1.4
				c0,0,0,0,0,0c0,0,0,0,0.1,0c1,0.2,2.5,0.5,4.4,0.9c0,0,0,0,0,0c2.1,0.3,3.9,0.6,5.4,0.9c1.5,0.3,2.8,0.5,3.9,0.8c0,0,0,0,0,0
				C236.7,263.7,254,266.1,259.3,264z M259.3,264c0.1,0.2,0.7,1.1,1.9,2.4C260.6,265.7,260,264.9,259.3,264z"/>
		</g>
		<g>
		</g>
	</g>
	<path class="st4" d="M10.4,141.8c6.4-23.5,43-14.3,43-14.3s24.1,42.9,31.3,44.3c7.2,1.3-14.1-40.9-14.1-40.9
		c14.1-0.8,49.5,19.8,49.5,19.8s-3.3,48.5,4,47.9c7.3-0.6,0.9-43.2,0.9-43.2c13.5,5.1,25.8,23.1,25.8,23.1
		c15.3,29.1-19.2,48.2-19.2,48.2s-0.8,16.9,8.3,36.7c0,0,0,0,0,0s2.1,3.7,4.1,9.9l-3.7-0.2c-0.3-1.1-0.6-2.2-0.9-3.2c0,0,0,0,0,0
		c0,0,0,0,0,0c-0.2-0.6-0.6-1.6-1-2.7c0,0,0,0,0,0c0,0,0,0,0,0c-1.1-2.5-1.8-4.3-2.3-5.6c0,0,0,0,0,0c-3.2-7.8-7.9-18-11.1-20.2
		c0,0,0.4-0.6,0.8-1.8c-0.3,0.6-0.5,1.2-0.8,1.8c-6.7,14.6-38.5,15.5-56.1,10.7c-17.6-4.8-9.8-9.9-0.1-18.3
		c9.7-8.4,29.6-5.1,35.6-8.3c6-3.2-2.6-7.1-14.4-6.7c-11.8,0.4-18,13-37.1,14.1c-19.1,1-32.8-38.9-32.8-38.9
		c13.1,5.1,36.8-1.7,37.8-6.6c1-4.9-33.9-6.1-39.3-7.9C13.3,177.7,4,165.3,10.4,141.8z"/>
</g>
<g id="OBJECTS">
	<g>
		<g>
			<g class="st5">
				<ellipse class="st6" cx="242.7" cy="385.7" rx="52.6" ry="7.2"/>
			</g>
			<g class="st5">
				<ellipse class="st6" cx="197.4" cy="414.6" rx="115.4" ry="15.9"/>
			</g>
			<g>
				<path class="st7" d="M269.7,386.5c0.6,2.2-13.1,4.2-29.2,4.2c-16.1,0-29.8-2-29.2-4.2c2.1-8,13.1-6.6,29.2-6.6
					C256.6,379.9,267.7,378.5,269.7,386.5z"/>
				<ellipse class="st8" cx="240.5" cy="382.6" rx="26.2" ry="3.8"/>
				<g>
					<path class="st9" d="M266.8,87.8c-1.7,0-3.1-1.4-3.1-3.1V61.9c0-1.7,1.4-3.1,3.1-3.1c1.7,0,3.1,1.4,3.1,3.1v22.8
						C269.9,86.4,268.5,87.8,266.8,87.8z"/>
					<path class="st8" d="M240.5,383.7c-1.7,0-3.1-1.4-3.1-3.1V41.9c0-1.7,1.4-3.1,3.1-3.1c1.7,0,3.1,1.4,3.1,3.1v338.8
						C243.6,382.3,242.2,383.7,240.5,383.7z"/>
					<path class="st8" d="M275.5,64.1h-70.4c-1.7,0-3.1-1.4-3.1-3.1s1.4-3.1,3.1-3.1h70.4c1.7,0,3.1,1.4,3.1,3.1
						S277.2,64.1,275.5,64.1z"/>
				</g>
			</g>
			<g>
				<g>
					<g>
						<path class="st7" d="M270.9,412.2c1.5,6-34.8,11.2-77.7,11.2c-42.9,0-79.2-5.2-77.7-11.2c5.5-21.4,34.8-17.6,77.7-17.6
							C236.1,394.6,265.6,390.9,270.9,412.2z"/>
						<ellipse class="st8" cx="193.2" cy="401.9" rx="69.7" ry="10"/>
						<path class="st9" d="M222.1,343.4v-1.6c0-8-4.2-14.5-9.3-14.5h-39.2c-5.1,0-9.3,6.5-9.3,14.5v1.6c0,4.1,1.1,7.9,2.9,10.5
							c-1.8,2.6-2.9,6.4-2.9,10.5v1.6c0,4.1,1.1,7.9,2.9,10.5c-1.8,2.6-2.9,6.4-2.9,10.5v1.6c0,8,4.2,14.5,9.3,14.5h39.2
							c5.1,0,9.3-6.5,9.3-14.5v-1.6c0-4.1-1.1-7.9-2.9-10.5c1.8-2.6,2.9-6.4,2.9-10.5v-1.6c0-4.1-1.1-7.9-2.9-10.5
							C221,351.3,222.1,347.6,222.1,343.4z"/>
					</g>
					<path class="st9" d="M261.7,291.8c5.2-0.5,9.9-13.1,9.9-17.5c2.8,2.1,7.5,3.4,10.6,4.7c-0.3,6.7-8,19.3-14.8,19.3L261.7,291.8z
						"/>
					<g>
						<path class="st10" d="M109,320.8c15.3,3.9,104.4,1,133.1,1c11.1,0,22-0.3,32.9-2.3c3.9-0.8,9.1-1.6,11.4-5.2
							c0.8-1.3,1.1-2.8,1-4.3c-3.7-4.8-10.2-9.8-20.6-17.9c-14.5-11.4-30.7-8.6-48-8.6c-3.1,0-17.3-0.2-26.1,0.3
							c-7.7-0.5-19.8-0.3-22.9-0.3c-17.3,0-33.5-2.8-48,8.6c-12.9,10.2-19.8,15.3-22.8,21.5C99.8,318.1,104.8,319.7,109,320.8z"/>
					</g>
					<g>
						<path class="st11" d="M286.3,310.1c0.1,1.5-0.2,2.9-1,4.3c-2.3,3.6-7.5,4.4-11.4,5.2c-10.9,2.1-21.8,2.3-32.9,2.3
							c-28.7,0-117.8,2.8-133.1-1c-4.2-1.2-9.2-2.7-10-7.2c-2.2,4.4-2.5,9.4-1.7,17.2c1.9,17.8,24.2,14.2,37.3,14.2
							c7.2,0,49.6,0.2,61.7,0.5l0,0.1c0.1,0,0.7-0.1,1.5-0.1c1,0,1.5,0.1,1.7,0.1l0-0.2c11.1-0.3,47.4-0.5,54.5-0.5
							c13.1,0,35.4,3.6,37.3-14.2C291.3,321,290.5,315.6,286.3,310.1z"/>
					</g>
					<g>
						<path class="st11" d="M255.8,274.1c0,11.9-9.7,12.3-21.6,12.3h-81.9c-11.9,0-21.6-0.3-21.6-12.3v-90.4
							c0-11.9,9.7-21.6,21.6-21.6h81.9c11.9,0,21.6,9.7,21.6,21.6V274.1z"/>
					</g>
					<g>
						<path class="st10" d="M231.5,186.9c0,6.5-5.3,11.8-11.8,11.8h-53c-6.5,0-11.8-5.3-11.8-11.8v-24.1c0-6.5,5.3-11.8,11.8-11.8
							h53c6.5,0,11.8,5.3,11.8,11.8V186.9z"/>
					</g>
					<g>
						<g>
							<path class="st11" d="M325.1,281.4c-10.2,3.8-19,3.9-29.4,0.5c-10.4-3.4-42-16.7-47.8-18.8c-3.6-1.5-7.4-3.8-8.7-7.3
								c0,0,0,0,0,0c-1.9,6.3,3.6,9.9,8.7,12.1c5.8,2.2,37.4,15.4,47.8,18.8c10.4,3.4,19.2,3.3,29.4-0.5c3.9-1.2,8-2.4,8.9-6.8
								c0.3-1.5,0.2-2.8-0.3-3.9C332.4,279.2,328.7,280.3,325.1,281.4z"/>
						</g>
						<g>
							<path class="st10" d="M247.9,263.1c5.8,2.2,37.4,15.4,47.8,18.8c10.4,3.4,19.2,3.3,29.4-0.5c3.6-1.1,7.4-2.2,8.7-5.8
								c-0.9-2.3-3.2-3.7-5.8-4.5c-6.8-1.9-68.5-22.9-68.5-22.9c-6.3-2.6-18.3,0.9-20.3,7.7C240.4,259.2,244.3,261.5,247.9,263.1z"
								/>
						</g>
					</g>
				</g>
				<g>
					<g>
						<path class="st12" d="M179,201.5c1.4-4.8,2.2-10.2,3.5-15.2l0,0c-3.1-1.4-5.9-6.4-7.4-9.3c-1.9-3.8-2.8-8.1-3.5-12.3
							c-1.2-8.8,0.2-17.4,6.7-23.7c6.7-6.4,16.7-6.2,22.8,0.7c5,5.9,6,15,4.7,22.4c-1.6,8.5-5.2,16.6-11.4,22.6c0,0,1.7,14,2.6,16.6
							c-3.6,0.9-6.6,2.2-10.4,1.7c-2.1-0.3-6.4-1.6-7.4-3.5L179,201.5z"/>
						<g>
							<path class="st13" d="M171.6,170.5c2.4-0.9,3.1-12.6,3.5-15.2c0.2-1.9,0.2-3.8,0.3-5.7c0.2-2.2,0-2.6,1.6-4.1
								c2.2-2.1,2.6-1.4,5.4-0.7c2.2,0.7,4.5,0.9,6.7,1.6c5,1.4,9.7,2.1,14.7,2.4c0.3,4-0.8,8.9-0.6,12.8c0.2,2.1-0.2,9.9,3.3,8.2
								c2.6-1.4,3.9-8.7,4.1-11.3c0.2-3.6,0.7-7.3,0.5-10.9c-0.3-8.3-11-13.3-18.3-14.7c-3.8-0.7-7.8-0.7-11.4,0.2
								c-2.1,0.3-4,1.4-5.5,2.9c-1.7,1.9-2.5,3.4-2.8,5.7c0,0.3,0,0.9,0,1.2c-7.9,0-7.6,6.9-7.3,12.9c0.2,3.3,0.9,13.3,4.3,15
								L171.6,170.5z"/>
						</g>
						<g>
							<path class="st12" d="M174.4,170.5c0-1-0.7-1.4-1.6-1.7c-3.1-1.2-5,1.4-5.2,4.1c-0.2,3.1,1.6,5.4,4.5,6.6
								c1.7,0.7,4.8,1,5.9-1L174.4,170.5z"/>
							<path class="st12" d="M203,168.9c3.6-1.2,6.2-1,6.6,3.8c0.5,5.4-7.6,9.8-11.1,5L203,168.9z"/>
						</g>
						<g>
							<g>
								<path class="st14" d="M190.8,156.8c0.1,1.2,0.2,2.3,0.3,3.5c0.1,1.2,0.2,2.3,0.4,3.4c0.1,0.3,0.1,0.6,0.2,0.8l0.2,0.8
									c0.2,0.6,0.3,1.2,0.4,1.8c0,0.3,0.1,0.6,0.1,0.9c0,0.3,0,0.6,0,1c0,0.3-0.1,0.7-0.4,1.1c-0.3,0.4-0.8,0.4-1.2,0.4l0,0
									c-0.2,0-0.4,0-0.5-0.1c-0.2-0.1-0.3-0.1-0.4-0.3c-0.3-0.2-0.5-0.4-0.6-0.6c-0.4-0.4-0.7-0.9-0.9-1.4c-0.5-1-0.9-2-1.3-3
									c0.6,0.9,1.1,1.9,1.7,2.7c0.3,0.4,0.6,0.8,1,1.2c0.2,0.2,0.4,0.3,0.6,0.5c0.1,0.1,0.2,0.1,0.3,0.1c0.1,0.1,0.2,0,0.2,0l0,0
									l0,0c0.2,0,0.3,0,0.4-0.2c0.1-0.1,0.2-0.3,0.2-0.6c0-0.2,0-0.5,0-0.8c0-0.3-0.1-0.5-0.1-0.8c-0.1-0.6-0.2-1.1-0.4-1.7
									l-0.2-0.9c-0.1-0.3-0.1-0.6-0.2-0.9c-0.2-1.2-0.2-2.4-0.1-3.6C190.5,159.2,190.6,158,190.8,156.8z"/>
							</g>
							<g>
								<path class="st14" d="M184.7,174.8c0,0,0.1,0.1,0.4,0.3c0.1,0.1,0.3,0.2,0.4,0.3c0.2,0.1,0.4,0.2,0.6,0.4
									c0.2,0.1,0.5,0.2,0.7,0.4c0.3,0.1,0.6,0.2,0.9,0.3c0.3,0.1,0.6,0.1,0.9,0.2c0.3,0.1,0.6,0,1,0.1c0.3,0,0.7,0,1-0.1
									c0.3,0,0.6-0.2,0.9-0.3c0.2-0.2,0.5-0.3,0.7-0.4c0.2-0.2,0.4-0.4,0.6-0.5c0.2-0.2,0.3-0.4,0.4-0.6c0.1-0.2,0.2-0.4,0.2-0.5
									c0.1-0.3,0.2-0.5,0.2-0.5s0,0.2,0,0.5c0,0.2,0,0.4-0.1,0.6c-0.1,0.2-0.1,0.5-0.3,0.7c-0.1,0.3-0.3,0.5-0.5,0.8
									c-0.2,0.3-0.5,0.5-0.8,0.7c-0.3,0.1-0.7,0.4-1.1,0.4c-0.4,0.1-0.8,0.1-1.2,0.2c-0.4,0-0.8,0-1.1-0.1c-0.4,0-0.7-0.2-1.1-0.3
									c-0.7-0.3-1.2-0.6-1.6-1c-0.2-0.2-0.4-0.4-0.5-0.6c-0.1-0.2-0.3-0.3-0.3-0.5C184.7,174.9,184.7,174.8,184.7,174.8z"/>
							</g>
							<g>
								<path d="M179.4,154.8c0,0-0.2-0.4-0.2-1c0-0.3,0-0.7,0.1-1.1c0.1-0.2,0.1-0.4,0.2-0.6c0.1-0.2,0.2-0.4,0.4-0.6
									c0.3-0.4,0.7-0.6,1.1-0.7c0.4-0.1,0.8-0.1,1.1-0.1c0.3,0,0.6,0.1,0.7,0.2c0.2,0.1,0.3,0.1,0.3,0.1s-0.1,0-0.3,0.1
									c-0.2,0-0.4,0.1-0.7,0.2c-0.3,0.1-0.6,0.2-0.8,0.4c-0.1,0.1-0.3,0.2-0.4,0.3c-0.1,0.1-0.2,0.2-0.3,0.3
									c-0.2,0.2-0.4,0.5-0.5,0.8c-0.1,0.3-0.3,0.6-0.4,0.9c-0.1,0.3-0.2,0.5-0.2,0.7C179.4,154.7,179.4,154.8,179.4,154.8z"/>
							</g>
							<ellipse cx="181.9" cy="160" rx="1.2" ry="2.1"/>
							<g>
								<path d="M198.7,154.8c0,0,0-0.1-0.1-0.3c-0.1-0.2-0.1-0.4-0.2-0.7c-0.1-0.3-0.2-0.6-0.4-0.9c-0.2-0.3-0.3-0.6-0.5-0.8
									c-0.1-0.1-0.2-0.2-0.3-0.3c-0.1-0.1-0.2-0.2-0.4-0.3c-0.3-0.2-0.6-0.3-0.8-0.4c-0.3-0.1-0.5-0.2-0.7-0.2
									c-0.2,0-0.3-0.1-0.3-0.1s0.1,0,0.3-0.1c0.2-0.1,0.4-0.1,0.7-0.2c0.3,0,0.7,0,1.1,0.1c0.4,0.1,0.8,0.4,1.1,0.7
									c0.1,0.2,0.3,0.4,0.4,0.6c0.1,0.2,0.2,0.4,0.2,0.6c0.1,0.4,0.1,0.8,0.1,1.1C198.8,154.5,198.7,154.8,198.7,154.8z"/>
							</g>
							<ellipse cx="196.1" cy="160" rx="1.2" ry="2.1"/>
						</g>
					</g>
					<g>
						<g>
							<g>
								<path class="st15" d="M227.2,415.7c-0.1,0.3-0.2,0.5-0.2,0.8c-0.7,2.2-1.6,3.3,0.4,4.8c3.4,2.8,7.7,5,11.6,7
									c3.6,2,7.5,3.8,11.5,5.1c2.9,0.9,8.6,3.2,11.7,2.9c0,0,1-1.9,1.7-3.2c-7.2-1-14.5-3.6-20.8-7.5
									C237.9,422.4,232,419.8,227.2,415.7z"/>
							</g>
							<g>
								<path class="st16" d="M265.1,426.2c-0.3-4.5-4-7-7.4-9.5c-0.6-0.4-1.2-0.8-1.8-1.2c-4.6,2.2-8.2,7.5-8.2,12.6
									c5.1,2.5,10.7,4.2,16.2,4.9C264.9,431,265.2,427.9,265.1,426.2z"/>
							</g>
							<g>
								<path class="st17" d="M241.1,409.9c-1.6-4.2-1.9-9.2-0.9-13.8l-6.5-0.7c0.1,5-3.1,11.2-4.8,15.8c-0.6,1.5-1.1,3-1.6,4.5
									c4.8,4,10.6,6.7,15.8,9.9c1.5,0.9,3,1.8,4.6,2.5c0-2.9,1.2-5.9,3.1-8.3C246.8,417.2,243.1,415.1,241.1,409.9z"/>
							</g>
							<g>
								<path class="st16" d="M255.9,415.6c-3.4-2.1-7.8-4.2-9.8-7.3c-2.2-3.5-1.6-8.1,0.2-11.6l-6.2-0.6c-1,4.6-0.7,9.6,0.9,13.8
									c2,5.2,5.7,7.3,9.6,10C252.2,418,253.9,416.5,255.9,415.6z"/>
							</g>
							<g>
								<defs>
									<path id="SVGID_1_" d="M255.9,415.6c-3.4-2.1-7.8-4.2-9.8-7.3c-2.2-3.5-1.6-8.1,0.2-11.6l-6.2-0.6c-1,4.6-0.7,9.6,0.9,13.8
										c2,5.2,5.7,7.3,9.6,10C252.2,418,253.9,416.5,255.9,415.6z"/>
								</defs>
								<clipPath id="SVGID_2_">
									<use xlink:href="#SVGID_1_"  style="overflow:visible;"/>
								</clipPath>
								<g class="st18">
									<g>
										<path class="st17" d="M248.9,419.4c0,0,0.1-0.1,0.2-0.4c0.1-0.2,0.3-0.6,0.6-0.9c0.3-0.4,0.6-0.8,1-1.2
											c0.4-0.4,0.9-0.7,1.4-1.1c1-0.6,2.2-1.1,3.1-1.3c0.9-0.2,1.5-0.3,1.5-0.3s-0.5,0.3-1.3,0.6c-0.8,0.4-1.8,0.9-2.8,1.5
											c-1,0.6-1.9,1.3-2.5,1.9c-0.3,0.3-0.6,0.5-0.7,0.8C249,419.3,248.9,419.4,248.9,419.4z"/>
									</g>
									<g>
										<path class="st17" d="M246.7,418.3c0,0,0-0.1,0.1-0.4c0.1-0.2,0.2-0.6,0.5-1c0.5-0.8,1.3-1.7,2.3-2.4
											c1-0.7,2.2-1.2,3.1-1.4c0.2,0,0.4-0.1,0.6-0.1c0.2,0,0.4,0,0.5,0c0.3,0,0.4,0.1,0.4,0.1s-0.2,0-0.4,0.1
											c-0.1,0-0.3,0.1-0.5,0.1c-0.2,0-0.4,0.1-0.6,0.2c-0.4,0.2-0.9,0.4-1.3,0.7c-0.5,0.3-1,0.6-1.4,0.9
											c-0.5,0.3-0.9,0.7-1.3,1.1c-0.4,0.4-0.8,0.7-1.1,1c-0.3,0.3-0.5,0.6-0.7,0.8C246.8,418.2,246.7,418.3,246.7,418.3z"/>
									</g>
									<g>
										<path class="st17" d="M244.9,417.1c0,0,0.1-0.6,0.6-1.5c0.2-0.4,0.6-0.9,1-1.3c0.4-0.5,0.9-0.9,1.4-1.3
											c0.5-0.4,1.1-0.7,1.6-1c0.6-0.2,1.1-0.4,1.6-0.5c0.5-0.1,0.9-0.1,1.2-0.1c0.3,0,0.4,0,0.4,0s-0.2,0.1-0.4,0.1
											c-0.3,0.1-0.6,0.2-1.1,0.4c-0.9,0.3-1.9,0.9-2.9,1.7c-1,0.7-1.8,1.6-2.4,2.3c-0.3,0.4-0.5,0.7-0.7,0.9
											C245,417,244.9,417.1,244.9,417.1z"/>
									</g>
									<g>
										<path class="st17" d="M242.6,416c0,0,0.2-0.6,0.7-1.5c0.2-0.4,0.6-0.9,1-1.4c0.4-0.5,0.9-0.9,1.5-1.3
											c0.6-0.4,1.1-0.7,1.7-1c0.6-0.2,1.2-0.4,1.7-0.5c0.5-0.1,0.9-0.1,1.2-0.1c0.3,0,0.5,0,0.5,0s-0.2,0-0.4,0.1
											c-0.3,0.1-0.7,0.2-1.1,0.3c-0.9,0.3-2.1,0.9-3.1,1.6c-1,0.7-2,1.6-2.6,2.4c-0.3,0.4-0.6,0.7-0.7,0.9
											C242.7,415.9,242.6,416,242.6,416z"/>
									</g>
									<g>
										<path class="st17" d="M241.9,413.5c0,0,0-0.1,0.1-0.4c0.1-0.2,0.2-0.5,0.5-0.9c0.5-0.7,1.3-1.4,2.2-2
											c0.9-0.5,2-0.9,2.8-1.1c0.8-0.2,1.3-0.2,1.3-0.2s-0.1,0.1-0.3,0.1c-0.2,0.1-0.5,0.2-0.9,0.4c-0.7,0.3-1.6,0.8-2.5,1.3
											c-0.9,0.5-1.7,1.1-2.3,1.7c-0.3,0.3-0.5,0.5-0.6,0.7C242,413.4,241.9,413.5,241.9,413.5z"/>
									</g>
									<g>
										<path class="st17" d="M239.7,411.5c0,0,0-0.1,0.1-0.4c0-0.1,0.1-0.3,0.2-0.4c0.1-0.2,0.2-0.3,0.4-0.5
											c0.3-0.4,0.7-0.7,1.2-1.1c0.5-0.3,1.1-0.6,1.6-0.8c1.2-0.4,2.4-0.7,3.3-0.8c0.9-0.1,1.5-0.1,1.5-0.1s-0.1,0.1-0.4,0.1
											c-0.3,0.1-0.6,0.2-1,0.3c-0.9,0.3-2,0.6-3.1,1c-0.5,0.2-1.1,0.4-1.6,0.7c-0.5,0.3-0.9,0.5-1.2,0.8
											c-0.3,0.3-0.6,0.5-0.8,0.7C239.8,411.4,239.7,411.5,239.7,411.5z"/>
									</g>
									<g>
										<path class="st17" d="M239.2,408.2c0,0,0.4-0.3,1-0.7c0.6-0.4,1.6-0.8,2.5-1c1-0.3,1.9-0.4,2.7-0.5c0.7,0,1.2,0.1,1.2,0.1
											s-0.1,0-0.3,0.1c-0.2,0.1-0.5,0.1-0.9,0.2c-0.7,0.2-1.6,0.5-2.6,0.7c-0.9,0.3-1.9,0.5-2.6,0.7
											C239.7,408.1,239.2,408.2,239.2,408.2z"/>
									</g>
									<g>
										<path class="st17" d="M238.4,405.5c0,0,2-1.1,4.2-1.6c1.1-0.2,2.3-0.3,3.1-0.2c0.4,0,0.8,0.1,1,0.2
											c0.2,0.1,0.4,0.1,0.4,0.1s-0.1,0-0.4,0c-0.2,0-0.6,0-1,0.1c-0.8,0.1-1.9,0.2-2.9,0.5c-1.1,0.2-2.1,0.5-3,0.7
											C239,405.5,238.4,405.5,238.4,405.5z"/>
									</g>
									<g>
										<path class="st17" d="M238.2,403.7c0,0,0.1-0.1,0.2-0.3c0.2-0.2,0.5-0.4,0.8-0.6c0.7-0.4,1.8-0.7,2.9-0.8
											c1.1-0.1,2.2,0,3,0.1c0.8,0.1,1.3,0.4,1.3,0.4s-0.5,0-1.4,0c-0.8,0-1.9,0.1-2.9,0.2c-0.5,0-1,0.1-1.5,0.2
											c-0.5,0.1-0.9,0.2-1.3,0.3c-0.2,0.1-0.4,0.1-0.5,0.2c-0.1,0.1-0.3,0.1-0.4,0.2C238.3,403.6,238.2,403.7,238.2,403.7z"/>
									</g>
									<g>
										<path class="st17" d="M238.8,400.7c0,0,0.4-0.2,1-0.4c0.6-0.2,1.5-0.3,2.4-0.3c0.9,0,1.7,0.1,2.4,0.2
											c0.6,0.1,1.1,0.2,1.1,0.2s-0.4,0.1-1.1,0.2c-0.7,0.1-1.5,0.1-2.4,0.1c-0.9,0-1.7,0-2.3,0c-0.3,0-0.6,0-0.8,0
											C238.9,400.7,238.8,400.7,238.8,400.7z"/>
									</g>
								</g>
							</g>
							<g>
								
									<ellipse transform="matrix(0.238 -0.9713 0.9713 0.238 -220.3881 540.3578)" class="st16" cx="234.2" cy="410.6" rx="4.5" ry="2.2"/>
							</g>
						</g>
						<g>
							<g>
								<path class="st15" d="M169.1,414.6c0.1,0.3,0.1,0.5,0.2,0.8c0.6,2.3,1.5,3.3-0.6,4.8c-3.5,2.7-7.9,4.7-11.9,6.5
									c-3.7,1.8-7.7,3.5-11.7,4.6c-3,0.8-8.7,2.9-11.8,2.5c0,0-1-1.9-1.5-3.3c7.2-0.7,14.6-3,21.1-6.7
									C158.2,420.9,164.1,418.5,169.1,414.6z"/>
							</g>
							<g>
								<path class="st16" d="M130.8,423.7c0.4-4.5,4.3-6.8,7.8-9.2c0.6-0.4,1.2-0.8,1.9-1.1c4.5,2.3,7.9,7.8,7.7,12.9
									c-5.2,2.3-10.8,3.7-16.4,4.3C130.9,428.4,130.6,425.4,130.8,423.7z"/>
							</g>
							<g>
								<path class="st17" d="M155.4,408.2c1.8-4.2,2.3-9.1,1.5-13.8l6.6-0.4c-0.3,5,2.7,11.3,4.2,16c0.6,1.5,1,3.1,1.4,4.6
									c-4.9,3.9-10.9,6.3-16.2,9.3c-1.5,0.9-3.1,1.6-4.7,2.3c0.1-2.9-1-5.9-2.8-8.4C149.5,415.4,153.2,413.3,155.4,408.2z"/>
							</g>
							<g>
								<path class="st16" d="M140.4,413.3c3.5-1.9,7.9-3.9,10-6.9c2.3-3.4,1.9-8.1,0.2-11.6l6.2-0.4c0.8,4.6,0.3,9.6-1.5,13.8
									c-2.2,5.1-6,7.1-10,9.6C144.1,415.9,142.3,414.3,140.4,413.3z"/>
							</g>
							<g>
								<defs>
									<path id="SVGID_3_" d="M140.4,413.3c3.5-1.9,7.9-3.9,10-6.9c2.3-3.4,1.9-8.1,0.2-11.6l6.2-0.4c0.8,4.6,0.3,9.6-1.5,13.8
										c-2.2,5.1-6,7.1-10,9.6C144.1,415.9,142.3,414.3,140.4,413.3z"/>
								</defs>
								<clipPath id="SVGID_4_">
									<use xlink:href="#SVGID_3_"  style="overflow:visible;"/>
								</clipPath>
								<g class="st19">
									<g>
										<path class="st17" d="M147.3,417.5c0,0-0.1-0.1-0.3-0.3c-0.2-0.2-0.4-0.5-0.7-0.8c-0.6-0.6-1.5-1.3-2.5-2
											c-1-0.6-2-1.2-2.8-1.6c-0.8-0.4-1.3-0.7-1.3-0.7s0.6,0.1,1.5,0.3c0.9,0.2,2,0.7,3,1.4c0.5,0.3,1,0.7,1.4,1.1
											c0.4,0.4,0.8,0.8,1,1.2c0.3,0.4,0.4,0.7,0.5,1C147.2,417.3,147.3,417.5,147.3,417.5z"/>
									</g>
									<g>
										<path class="st17" d="M149.5,416.4c0,0-0.1-0.1-0.2-0.3c-0.1-0.2-0.4-0.5-0.7-0.8c-0.3-0.3-0.6-0.7-1-1.1
											c-0.4-0.4-0.8-0.8-1.3-1.1c-0.5-0.4-0.9-0.7-1.4-1c-0.5-0.3-0.9-0.5-1.3-0.7c-0.2-0.1-0.4-0.2-0.6-0.2
											c-0.2-0.1-0.3-0.1-0.4-0.1c-0.3-0.1-0.4-0.1-0.4-0.1s0.1,0,0.4,0c0.1,0,0.3,0,0.5,0c0.2,0,0.4,0.1,0.6,0.1
											c0.9,0.2,2,0.8,3,1.5c1,0.8,1.8,1.7,2.2,2.5c0.2,0.4,0.4,0.8,0.5,1C149.4,416.3,149.5,416.4,149.5,416.4z"/>
									</g>
									<g>
										<path class="st17" d="M151.3,415.3c0,0-0.1-0.1-0.2-0.4c-0.1-0.2-0.4-0.5-0.7-0.9c-0.6-0.7-1.4-1.6-2.3-2.4
											c-0.9-0.8-2-1.4-2.8-1.8c-0.4-0.2-0.8-0.3-1-0.4c-0.3-0.1-0.4-0.1-0.4-0.1s0.2,0,0.4,0c0.3,0,0.7,0,1.2,0.2
											c0.5,0.1,1,0.3,1.6,0.6c0.5,0.3,1.1,0.6,1.6,1c0.5,0.4,1,0.9,1.3,1.4c0.4,0.5,0.7,0.9,0.9,1.4
											C151.2,414.7,151.3,415.3,151.3,415.3z"/>
									</g>
									<g>
										<path class="st17" d="M153.7,414.3c0,0-0.1-0.1-0.3-0.4c-0.2-0.2-0.4-0.6-0.7-0.9c-0.6-0.8-1.5-1.7-2.5-2.5
											c-1-0.8-2.1-1.4-3-1.7c-0.4-0.2-0.8-0.3-1.1-0.4c-0.3-0.1-0.4-0.1-0.4-0.1s0.2,0,0.5,0c0.3,0,0.7,0,1.2,0.1
											c0.5,0.1,1.1,0.3,1.6,0.5c0.6,0.3,1.2,0.6,1.7,1c0.5,0.4,1,0.9,1.4,1.4c0.4,0.5,0.7,1,1,1.4
											C153.6,413.7,153.7,414.3,153.7,414.3z"/>
									</g>
									<g>
										<path class="st17" d="M154.5,411.8c0,0-0.1-0.1-0.2-0.3c-0.1-0.2-0.3-0.4-0.6-0.7c-0.5-0.6-1.3-1.2-2.2-1.7
											c-0.9-0.6-1.8-1.1-2.5-1.4c-0.4-0.2-0.6-0.3-0.9-0.4c-0.2-0.1-0.3-0.2-0.3-0.2s0.5,0,1.3,0.2c0.8,0.2,1.8,0.6,2.7,1.2
											c0.9,0.6,1.7,1.4,2.1,2.1c0.2,0.3,0.3,0.7,0.4,0.9C154.5,411.7,154.5,411.8,154.5,411.8z"/>
									</g>
									<g>
										<path class="st17" d="M156.7,409.9c0,0-0.1-0.1-0.2-0.3c-0.2-0.2-0.4-0.5-0.7-0.8c-0.3-0.3-0.7-0.6-1.2-0.9
											c-0.5-0.3-1-0.5-1.5-0.8c-1.1-0.5-2.2-0.9-3.1-1.2c-0.4-0.2-0.8-0.3-1-0.4c-0.3-0.1-0.4-0.2-0.4-0.2s0.6,0,1.5,0.1
											c0.9,0.1,2.1,0.4,3.2,0.9c1.1,0.5,2.2,1.2,2.8,2c0.1,0.2,0.3,0.4,0.4,0.5c0.1,0.2,0.2,0.3,0.2,0.4
											C156.7,409.8,156.7,409.9,156.7,409.9z"/>
									</g>
									<g>
										<path class="st17" d="M157.4,406.6c0,0-0.5-0.1-1.2-0.3c-0.7-0.2-1.6-0.5-2.5-0.8c-0.9-0.3-1.8-0.6-2.5-0.8
											c-0.4-0.1-0.6-0.2-0.8-0.3c-0.2-0.1-0.3-0.1-0.3-0.1s0.5-0.1,1.2,0c0.7,0,1.7,0.2,2.7,0.6c0.9,0.3,1.8,0.8,2.5,1.1
											C157,406.3,157.4,406.6,157.4,406.6z"/>
									</g>
									<g>
										<path class="st17" d="M158.3,404c0,0-0.6-0.1-1.4-0.3c-0.8-0.2-1.9-0.5-2.9-0.8c-1.1-0.3-2.1-0.5-2.9-0.6
											c-0.4,0-0.8-0.1-1-0.1c-0.2,0-0.4,0-0.4,0s0.1,0,0.4-0.1c0.2-0.1,0.6-0.1,1-0.2c0.8-0.1,2,0,3.1,0.3
											C156.3,402.9,158.3,404,158.3,404z"/>
									</g>
									<g>
										<path class="st17" d="M158.6,402.2c0,0-0.1-0.1-0.3-0.2c-0.1-0.1-0.2-0.1-0.4-0.2c-0.1-0.1-0.3-0.1-0.5-0.2
											c-0.4-0.1-0.8-0.2-1.3-0.3c-0.5-0.1-1-0.2-1.5-0.2c-1-0.1-2.1-0.2-2.9-0.3c-0.8-0.1-1.3-0.1-1.3-0.1s0.5-0.2,1.3-0.3
											c0.8-0.1,1.9-0.1,3,0c1.1,0.1,2.2,0.5,2.9,0.9c0.4,0.2,0.6,0.5,0.8,0.6C158.5,402.1,158.6,402.2,158.6,402.2z"/>
									</g>
									<g>
										<path class="st17" d="M158.1,399.1c0,0-0.1,0-0.3,0c-0.2,0-0.5,0-0.8,0c-0.6,0-1.5-0.1-2.3-0.1c-0.9,0-1.7-0.1-2.4-0.2
											c-0.6-0.1-1.1-0.2-1.1-0.2s0.4-0.1,1.1-0.2c0.6-0.1,1.5-0.1,2.4-0.1c0.9,0,1.8,0.2,2.4,0.4
											C157.7,398.9,158.1,399.1,158.1,399.1z"/>
									</g>
								</g>
							</g>
							<g>
								
									<ellipse transform="matrix(0.9797 -0.2006 0.2006 0.9797 -78.788 40.8709)" class="st16" cx="162.3" cy="409.3" rx="2.2" ry="4.5"/>
							</g>
						</g>
						<g>
							<path class="st20" d="M144.7,401c-1.3-3.1,0.1-7.3-0.5-10.7c-0.6-3.1-3.4-5.2-3.6-8.4c-0.3-3.8,0.8-6.9,0.2-10.7
								c-2.1-14.2-5-28.1-7.8-41.9c-1.9-8.7,5.1-15.4,11.1-21.5c3.2-3,6-6.1,8.8-9.2c2.8-3.1,6-8.5,9.9-10.2c7.7-4,19-1.4,26.9-0.5
								c3.8,0.4,7.2,0.8,11,0.9c3.8,0.1,8.7-1.2,12.4-0.1c4.1,1.1,7.5,5,11.3,6.8c3.4,2.5,7.2,4.6,10.6,7.1c7.2,5,14.7,10,21.5,15.6
								c10.9,8.8,4.2,31.5,1.2,43.5c-1.1,4.1-2.2,6.9-1.6,11c0.3,2.1,1.3,3.1,0.6,5.5c-0.4,2.1-2.1,3.4-2.5,5.5
								c-0.8,3.1-0.6,11-1.4,14.4c0,0-2.3,0.4-6.8,0.6c-3.5,0.3-6.9-0.1-10.4-0.5c-4.5-0.4-6.3-1.2-6.3-1.2c0.4-2.4,2-7.6,2.7-9.6
								c0.7-1.7,0.8-3.1,1.1-4.8c0.8-3.8,2.2-6.5,2.6-10.3c0.5-6.6-0.1-13.5,0.4-20c0-1.7,0.8-3.4,0.4-4.8c-0.3-2.1-2-3.1-2.3-4.9
								c-0.3-1.7,1.8-3.4,1.8-4.8c-0.3-1.7-2.4-3.5-3.7-4.9c-11.2-9.5-27.3-19.2-42.5-17.4c-7.6,0.9-16.3,4.2-22.3,9.6
								c-2.5,2-7,6.1-8.1,9.2c-0.8,3.4,1,1.4,1.7,3.8c0.6,3.1-1.1,2.4-1.8,5.1c-1.5,3.8,0.6,6.9,0.8,11.1c0.3,3.8-0.1,7.6,0.5,11.4
								c1,3.5,4,6.3,4,10.1c0,1.7-1.4,3.4-1.1,5.2c0.3,2.8,1.7,3.5,3,5.6c1.3,3.1,0.6,6.9,2.2,9.7c-4.6,5.1-17.1,6.6-23.6,4.7
								C144.7,401,144.7,401,144.7,401z"/>
							<g>
								<path class="st21" d="M157.9,375.3c-2.2,0.8-4.4,1.7-6.5,2.7c-1.1,0.5-2.1,1-3.1,1.7c-0.2,0.2-0.5,0.3-0.7,0.5
									c-0.2,0.2-0.5,0.3-0.6,0.5c-0.2,0.2-0.4,0.4-0.6,0.6c-0.2,0.2-0.3,0.4-0.4,0.6l-0.2-0.5c0.4,0.3,1,0.4,1.7,0.4
									c0.6,0,1.3,0,1.9,0c1.3-0.1,2.6-0.2,3.9-0.4c1.3-0.1,2.6-0.3,4-0.3c0.7,0,1.4,0,2.1,0.1c0.3,0.1,0.7,0.1,1.1,0.3
									c0.3,0.2,0.7,0.5,0.9,0.9l0,0l0,0c0.1,0.4,0,0.9-0.2,1.2c-0.2,0.4-0.5,0.6-0.7,0.8c-0.5,0.5-1.1,0.7-1.7,1
									c-1.2,0.5-2.4,0.9-3.6,1.2c-1.2,0.3-2.5,0.6-3.7,0.8c-1.2,0.2-2.5,0.4-3.8,0.6c2.5-0.6,4.9-1.2,7.3-1.9
									c1.2-0.4,2.4-0.8,3.5-1.4c0.5-0.3,1.1-0.6,1.5-1c0.2-0.2,0.4-0.4,0.5-0.6c0.1-0.2,0.1-0.4,0.1-0.6l0,0
									c-0.1-0.3-0.7-0.6-1.3-0.6c-0.6-0.1-1.2-0.1-1.9-0.1c-1.3,0-2.6,0.2-3.9,0.3c-1.3,0.1-2.6,0.3-4,0.3c-0.7,0-1.3,0-2,0
									c-0.7-0.1-1.4-0.2-2.1-0.6l-0.3-0.2l0.1-0.3c0.2-0.3,0.3-0.7,0.5-0.9c0.2-0.3,0.4-0.5,0.7-0.7c0.2-0.2,0.5-0.4,0.7-0.6
									c0.2-0.2,0.5-0.3,0.8-0.5c1-0.6,2.1-1.1,3.2-1.6c1.1-0.5,2.2-0.8,3.3-1.2C155.6,375.9,156.7,375.6,157.9,375.3z"/>
							</g>
							<g>
								<path class="st21" d="M148.8,391.1c0,0,0.8,0,2,0.1c1.2,0.1,2.7,0.1,4.2,0.1c1.5,0,3.1-0.1,4.2-0.3c0.6-0.1,1.1-0.1,1.4-0.2
									c0.3-0.1,0.5-0.1,0.5-0.1s-0.2,0.1-0.5,0.3c-0.3,0.2-0.8,0.4-1.3,0.6c-0.6,0.2-1.3,0.4-2,0.5c-0.7,0.1-1.5,0.2-2.3,0.2
									c-1.6,0-3.2-0.2-4.3-0.5C149.5,391.4,148.8,391.1,148.8,391.1z"/>
							</g>
							<g>
								<path class="st21" d="M249.4,378.3c-1,0-2,0-3,0c-1,0-2,0.1-3,0.2c-1,0.1-2,0.3-2.9,0.6c-0.5,0.1-0.9,0.3-1.4,0.5
									c-0.4,0.2-0.9,0.4-1.3,0.7l0.1-0.6c0.7,0.7,1.8,1,2.9,1.3c1.1,0.3,2.3,0.4,3.4,0.6c1.2,0.2,2.3,0.4,3.5,0.8
									c0.6,0.2,1.2,0.4,1.7,0.8c0.5,0.4,1,1,1.1,1.8l0,0.2l0,0.3c0,0.2-0.1,0.4-0.2,0.6c-0.2,0.4-0.5,0.6-0.8,0.8
									c-0.6,0.3-1.3,0.4-1.9,0.5c-1.2,0.1-2.4-0.1-3.6-0.2c-1.2-0.2-2.3-0.4-3.4-0.7l-1.7-0.4c-0.6-0.1-1.1-0.3-1.7-0.5
									c1.2,0.1,2.3,0.4,3.5,0.6c1.2,0.2,2.3,0.3,3.5,0.5c1.1,0.1,2.3,0.2,3.4,0.1c0.5-0.1,1.1-0.2,1.5-0.4c0.4-0.3,0.6-0.5,0.5-1
									c0-0.4-0.3-0.8-0.7-1.1c-0.4-0.3-0.9-0.5-1.4-0.7c-1.1-0.3-2.2-0.5-3.3-0.7c-1.1-0.2-2.3-0.4-3.5-0.7
									c-0.6-0.1-1.2-0.3-1.7-0.6c-0.6-0.2-1.1-0.6-1.6-1.1l-0.3-0.4l0.4-0.3c0.5-0.3,0.9-0.5,1.4-0.7c0.5-0.2,1-0.3,1.5-0.5
									c1-0.2,2-0.4,3-0.4c1-0.1,2,0,3,0C247.4,378.1,248.4,378.2,249.4,378.3z"/>
							</g>
							<g>
								<path class="st21" d="M236,388.8c0,0,0.8,0.1,1.9,0.4c0.5,0.1,1.2,0.3,1.8,0.5c0.7,0.2,1.4,0.4,2.1,0.5
									c0.7,0.1,1.4,0.2,2.1,0.3c0.3,0,0.7,0,1,0c0.3,0,0.6,0,0.9-0.1c0.5-0.1,1-0.2,1.3-0.3c0.3-0.1,0.5-0.2,0.5-0.2
									s-0.1,0.1-0.4,0.3c-0.1,0.1-0.3,0.2-0.5,0.3c-0.2,0.1-0.4,0.3-0.7,0.3c-0.3,0.1-0.6,0.2-0.9,0.3c-0.3,0.1-0.7,0.1-1.1,0.2
									c-0.4,0-0.8,0-1.1,0c-0.4,0-0.8-0.1-1.2-0.1c-0.8-0.2-1.5-0.4-2.2-0.6c-0.7-0.3-1.3-0.5-1.8-0.8
									C236.6,389.2,236,388.8,236,388.8z"/>
							</g>
						</g>
					</g>
					<g>
						<g>
							<g>
								<path class="st12" d="M318.1,266.5c-0.3-4.8-4-7.9-8.8-7.9c-2.6,0-5.2,1.4-7.2,3.4c-2.1-1.2-4.3-2.2-5.8-3.2
									c-3.3-2.2-23.5-14-32.6-17.6c-6.7-2.6-16.9-7.8-21.6-13.5l-8.3,9.8c0.9,1.4,17.1,14,21.2,16.1c0,0,26.2,9,31.8,10.7
									c3.8,1.2,7.4,2.7,10.9,4.7c0.6,0.3,1.2,0.7,1.8,0.9C301.7,275.3,318.7,278.7,318.1,266.5z"/>
								<g>
									<g>
										<path class="st12" d="M303.9,270.7C303.9,270.7,303.9,270.7,303.9,270.7c-2.2,1.7,1.2,4.5,2.4,5.5
											c0.8,0.7,1.8,1.6,2.8,1.9c1.3,0.4,2.6-0.1,3-1.4c0.5-1.6-0.6-2.5-1.7-3.4C309,272.1,306,269.2,303.9,270.7z"/>
										<g>
											<path class="st14" d="M303.9,270.7c0,0-0.1,0.1-0.2,0.2c-0.1,0.1-0.3,0.3-0.4,0.7c-0.1,0.3-0.1,0.8,0.1,1.2
												c0.2,0.4,0.5,0.9,0.9,1.3c0.4,0.4,0.9,0.9,1.4,1.3c0.5,0.4,1.1,0.9,1.7,1.3c0.6,0.4,1.2,0.8,1.9,1
												c0.7,0.2,1.4,0.1,1.8-0.3c0.2-0.2,0.4-0.5,0.5-0.8c0-0.1,0.1-0.2,0.1-0.3c0-0.1,0-0.1,0-0.2c0-0.1,0-0.3,0-0.4
												c-0.1-0.6-0.6-1.2-1.1-1.7c-1.1-1.1-2-2.1-3-2.7c-1-0.7-2-1-2.7-0.9c-0.2,0-0.3,0.1-0.5,0.1c-0.1,0-0.2,0.1-0.3,0.1
												C304,270.6,303.9,270.7,303.9,270.7z M303.9,270.7c0,0,0.1-0.1,0.2-0.1c0.1-0.1,0.2-0.1,0.3-0.1c0.1,0,0.3-0.1,0.5-0.1
												c0.3-0.1,0.8,0,1.3,0.1c0.5,0.1,1,0.4,1.5,0.7c1.1,0.6,2.2,1.5,3.4,2.4c0.6,0.5,1.3,1,1.5,2c0.1,0.2,0.1,0.5,0.1,0.7
												c0,0.1,0,0.3-0.1,0.4c0,0.1,0,0.2-0.1,0.3c-0.1,0.5-0.4,0.9-0.8,1.2c-0.8,0.7-1.9,0.7-2.7,0.5c-0.9-0.3-1.5-0.8-2.1-1.4
												c-0.5-0.5-1.1-1-1.6-1.5c-0.5-0.5-0.9-1-1.3-1.5c-0.4-0.5-0.7-1-0.8-1.4c-0.2-0.5-0.2-0.9,0-1.2c0.1-0.3,0.3-0.5,0.5-0.7
												C303.9,270.7,303.9,270.7,303.9,270.7z"/>
										</g>
									</g>
									<g>
										<path class="st12" d="M307.4,266.8c-0.9-0.4-1.9,0.6-2.1,1.4c-0.4,2.2,3.2,4.8,4.7,5.8c1.8,1.4,5.6,4.8,6.6,0.5
											c0.5-2.7-4.1-5.3-6.1-6.3c-0.9-0.4-1.7-0.9-2.5-1.3L307.4,266.8z"/>
										<g>
											<path class="st14" d="M307.4,266.8c-0.6-0.2-1.2,0.1-1.6,0.5c-0.2,0.2-0.4,0.5-0.4,0.8c-0.1,0.3-0.1,0.6,0,0.9
												c0.1,0.6,0.4,1.1,0.8,1.5c0.4,0.5,0.8,0.9,1.2,1.2c0.4,0.4,0.9,0.7,1.4,1.1c0.5,0.3,1,0.7,1.5,1c1,0.7,1.9,1.4,2.9,1.9
												c0.5,0.2,1,0.4,1.5,0.4c0.5,0,0.8-0.2,1.1-0.6c0.1-0.2,0.3-0.4,0.3-0.7l0.1-0.4l0,0l0,0c0-0.1,0,0.1,0,0.1l0,0l0-0.1
												l0-0.1l0-0.2c0-0.5-0.1-0.9-0.4-1.4c-0.6-1-1.4-1.8-2.3-2.5c-0.9-0.7-1.9-1.4-2.9-2l0,0c-0.8-0.4-1.6-0.9-2.4-1.3l0,0
												L307.4,266.8z M307.4,266.8l0.6,0.1l0,0c0.8,0.4,1.6,0.9,2.5,1.2l0,0c1.1,0.5,2.1,1.1,3.1,1.7c1,0.7,2,1.4,2.7,2.4
												c0.4,0.5,0.7,1.2,0.7,1.9l0,0.2l0,0.1l0,0.1l0,0l0,0.1l0,0l0,0l-0.1,0.5c-0.1,0.3-0.3,0.6-0.4,0.9
												c-0.4,0.6-1.1,1.1-1.9,1.1c-0.7,0-1.3-0.3-1.9-0.6c-0.6-0.3-1-0.7-1.5-1c-0.5-0.4-0.9-0.8-1.4-1.2
												c-0.4-0.4-0.9-0.7-1.4-1.1c-0.5-0.4-0.9-0.8-1.3-1.2c-0.4-0.4-0.8-0.9-1.1-1.4c-0.3-0.5-0.6-1.1-0.7-1.7
												c0-0.3,0-0.6,0-0.9c0.1-0.3,0.3-0.5,0.5-0.8C306.2,266.9,306.9,266.6,307.4,266.8z"/>
										</g>
									</g>
									<g>
										<path class="st12" d="M308.5,264c-2.8,0.9,6.6,8,7.9,8.7c1.4,0.6,2.7,0.5,3.5-1c0.5-1.6-0.1-2.5-1.2-3.6
											c-1.9-1.9-5.1-3.9-7.8-4.5c-0.8-0.1-1.6-0.3-2.2,0.3L308.5,264z"/>
										<g>
											<path class="st14" d="M308.5,264c-0.4,0.1-0.5,0.5-0.4,0.8c0.1,0.3,0.3,0.6,0.5,0.9c0.4,0.5,0.9,1,1.4,1.5
												c1,1,2.1,1.8,3.2,2.7l1.7,1.2l0.9,0.6c0.3,0.2,0.6,0.4,0.8,0.5c0.3,0.1,0.6,0.2,0.9,0.3c0.3,0.1,0.6,0.1,0.8,0
												c0.5-0.1,0.9-0.5,1.2-1.1l0,0.1c0.2-0.5,0.2-1.1,0-1.6c-0.2-0.5-0.6-1-1-1.5c-0.1-0.2-0.4-0.5-0.6-0.6
												c-0.2-0.2-0.5-0.4-0.7-0.6c-0.5-0.4-1-0.8-1.5-1.2c-1-0.7-2.1-1.4-3.3-1.9c-0.3-0.1-0.6-0.2-0.9-0.4
												c-0.3-0.1-0.6-0.2-0.9-0.3c-0.6-0.1-1.3-0.2-1.8,0.2l0,0L308.5,264z M308.5,264l0.2-0.3l0,0c0.2-0.2,0.6-0.4,0.9-0.4
												c0.3-0.1,0.7,0,1,0c0.3,0,0.7,0.1,1,0.2c0.3,0.1,0.6,0.2,0.9,0.3c1.2,0.4,2.4,1,3.5,1.7c0.6,0.3,1.1,0.7,1.6,1.1
												c0.3,0.2,0.5,0.4,0.8,0.6c0.3,0.2,0.5,0.4,0.7,0.7c0.4,0.5,0.9,1,1.2,1.7c0.3,0.7,0.2,1.5,0,2.2l0,0l0,0
												c-0.2,0.4-0.4,0.7-0.7,1c-0.3,0.3-0.7,0.5-1.1,0.6c-0.4,0.1-0.9,0.1-1.3,0c-0.4-0.1-0.7-0.2-1.1-0.4
												c-0.3-0.2-0.6-0.4-0.9-0.6l-0.9-0.6c-0.6-0.4-1.1-0.9-1.7-1.3c-1.1-0.9-2.1-1.9-3.1-2.9c-0.5-0.5-0.9-1.1-1.3-1.7
												c-0.2-0.3-0.4-0.6-0.4-1c0-0.2,0-0.4,0.1-0.5C308.1,264.1,308.3,264,308.5,264z"/>
										</g>
									</g>
									<g>
										<path class="st12" d="M312.4,260.5c-3.5,1.7,5.4,7.1,7.3,7.5c3.9,0.8,2.7-3.8,0.3-5.2c-2.2-1.2-4.4-2.5-7-2.3
											c0,0-0.1-0.1-0.3-0.1L312.4,260.5z"/>
										<g>
											<path class="st14" d="M312.4,260.5c-0.2,0.1-0.5,0.3-0.6,0.5c-0.1,0.2-0.2,0.5-0.1,0.8c0.1,0.6,0.5,1,0.9,1.4
												c0.8,0.8,1.7,1.5,2.7,2.1c1,0.6,2,1.1,3,1.6c0.5,0.2,1,0.5,1.5,0.6c0.2,0,0.6,0.1,0.8,0.1l0.3,0c0.1,0,0.2-0.1,0.3-0.1
												c0.4-0.1,0.5-0.5,0.6-0.9c0-0.5-0.1-1-0.3-1.4c-0.2-0.5-0.5-0.9-0.8-1.3c-0.4-0.4-0.8-0.7-1.3-1c-1-0.6-2-1.2-3-1.6
												c-1-0.4-2.2-0.7-3.3-0.7l0,0l0,0c-0.1-0.1-0.2-0.1-0.3-0.1l0,0L312.4,260.5z M312.4,260.5l0.3-0.1l0,0
												c0.1,0,0.2,0.1,0.3,0.1l0,0c2.3-0.1,4.5,0.8,6.6,1.8c0.5,0.2,1.1,0.5,1.5,1c0.5,0.4,0.8,0.9,1.1,1.5
												c0.3,0.5,0.5,1.2,0.5,1.9c0,0.3-0.1,0.7-0.3,1.1c-0.1,0.2-0.2,0.3-0.4,0.5c-0.2,0.1-0.3,0.2-0.5,0.3l-0.5,0.1
												c-0.2,0-0.4,0-0.5,0c-0.4,0-0.5-0.1-0.9-0.1c-0.7-0.2-1.1-0.5-1.7-0.8c-1-0.6-2-1.3-2.9-2c-0.9-0.7-1.8-1.5-2.5-2.4
												c-0.4-0.4-0.7-0.9-0.8-1.5c-0.1-0.3,0-0.6,0.1-0.8C311.9,260.8,312.1,260.6,312.4,260.5z"/>
										</g>
									</g>
									<g>
										<path class="st12" d="M301.4,262.9c1.9-3.6,5.2-5,9.3-4.9c7.8,0.3,4.5,9.7-1.1,11.1c-2.3,0.5-4-0.8-3.3-3.3
											c0.5-1.6,3.1-2.6,4.5-3.5"/>
										<path class="st14" d="M301.4,262.9c0,0,0.1-0.1,0.2-0.4c0.1-0.3,0.3-0.6,0.6-1.1c0.3-0.5,0.7-1,1.3-1.5
											c0.6-0.5,1.3-1,2.2-1.4c0.9-0.4,1.9-0.7,3-0.8c1.1-0.1,2.2-0.2,3.4,0c0.6,0.1,1.2,0.3,1.8,0.7c0.6,0.3,1.1,0.8,1.4,1.5
											c0.7,1.2,0.6,2.7,0.2,4c-0.8,2.5-2.7,4.6-5,5.5c-0.3,0.1-0.6,0.2-0.9,0.3c-0.3,0.1-0.6,0.1-0.9,0.1
											c-0.6,0-1.2-0.1-1.8-0.5c-0.5-0.3-0.9-0.9-1-1.4c-0.1-0.6-0.1-1.1,0-1.6l0.1-0.4c0-0.2,0.1-0.2,0.1-0.3
											c0.1-0.2,0.3-0.4,0.4-0.6c0.3-0.3,0.6-0.6,1-0.8c0.6-0.4,1.2-0.7,1.7-0.9c1-0.5,1.5-0.7,1.5-0.7s-0.5,0.4-1.4,0.9
											c-0.5,0.3-1,0.6-1.6,1.1c-0.3,0.2-0.6,0.5-0.8,0.8c-0.1,0.2-0.2,0.3-0.3,0.5c-0.1,0.2-0.1,0.4-0.2,0.6
											c-0.2,0.8,0,1.8,0.8,2.3c0.8,0.4,1.9,0.3,2.9-0.1c1-0.4,1.9-1.1,2.7-1.9c0.8-0.9,1.4-1.9,1.7-3c0.3-1.1,0.4-2.3-0.1-3.2
											c-0.5-0.9-1.5-1.5-2.5-1.7c-1-0.2-2.2-0.2-3.2-0.1c-1,0.1-2,0.3-2.8,0.6c-1.7,0.6-2.8,1.7-3.5,2.5c-0.3,0.4-0.6,0.8-0.7,1
											C301.4,262.8,301.4,262.9,301.4,262.9z"/>
									</g>
								</g>
							</g>
							<g>
								<path class="st22" d="M276.9,246.3c-0.7,0.3-1.3,1.1-1.9,1.6c-1.1,1.2-2.1,2.5-2.9,3.9c-0.3,0.6-0.3,1.3-1,1
									c-0.5-0.2-1-0.6-1.4-0.9c-1.1-0.5-2.2-1.1-3.2-1.4c-0.4-0.2-0.9-0.3-1.4-0.4c-0.1-0.7,0.6-1.7,0.9-2.3
									c0.3-0.7,0.7-1.4,1.2-2.1c0.8-1.1,1.6-2.2,2.6-3L276.9,246.3z"/>
							</g>
						</g>
						<g>
							<path class="st12" d="M149.5,244.5c0,11.9-2.2,23.7-2.2,35.6c0,4-0.3,7.6,4.3,9c4,1,9.3,0.3,10.9-3.6
								c3.1-8.1,2.1-18.1,2.1-26.6c0-4-0.5-9,0.9-12.8L149.5,244.5z"/>
							<g>
								<g>
									<path class="st17" d="M162.5,250.4c0,4.7-0.3,23.3-1.6,27.2c-1,2.8-2.3,4.1-2.3,7.5c0,3.1-0.5,4.1-2.3,6.7
										c7.8,10.4,23.6,11.4,35.2,11.9c6.2,0.3,11.7,0.8,17.4-1.8c4.9-2.3,12.7-5.7,15.3-10.6c1.8-3.1-0.8-2.3-1.8-5.2
										c-0.5-1,0.3-2.3-0.3-3.6c-0.3-1-1.6-2.3-2.1-3.6c-2.1-4.9-1-12.2-1.6-17.6c-0.8-10.1-0.5-20.2-1.6-30c0.3,2.6,0,0,4.9,7.5
										c1.6,2.4,3.1,4.9,4.4,7.5c8.5-2.6,15.8-10.9,20.5-18.4c-2.6-3.4-7-5.7-10.1-9.1c-3.6-3.9-10-11-15.1-12.9
										c-10.9-4.1-14.7-4.2-22.2-9.4c-6.5,6.4-16.5,5.5-23.3,0.5c-4.4,4.1-12.4,6.7-17.9,8.8c-6.5,2.6-7.8,6-8.8,12.7
										c-1,5.7-3.9,18.9-4.1,21.8c-0.3,2.3-0.6,4.8-0.6,4.8C148.8,249.1,162.5,250.4,162.5,250.4z"/>
								</g>
								<g>
									<g>
										<path class="st23" d="M162.4,257c0,0,0-0.4-0.1-1.1c0-0.7-0.1-1.7-0.1-2.9c0-1.2-0.1-2.6-0.1-4.1c0-1.5,0.1-3.1,0.1-4.7
											c0.1-1.6,0.1-3.2,0.2-4.6c0.1-1.5,0.2-2.9,0.3-4c0.1-1.2,0.2-2.2,0.2-2.9c0.1-0.7,0.1-1.1,0.1-1.1s0,0.4,0.1,1.1
											c0,0.7,0.1,1.7,0.1,2.9c0,1.2,0.1,2.6,0.1,4.1c0,1.5-0.1,3.1-0.1,4.7c-0.1,1.6-0.1,3.2-0.2,4.6c-0.1,1.5-0.2,2.9-0.3,4
											c-0.1,1.2-0.2,2.2-0.2,2.9C162.4,256.6,162.4,257,162.4,257z"/>
									</g>
									<g>
										<path class="st23" d="M158.1,227.1c0,0,0.2,0.8,0.3,2.1c0.1,0.6,0.2,1.3,0.3,2.1c0.1,0.8,0.2,1.6,0.4,2.4
											c0.1,0.8,0.3,1.6,0.5,2.3c0.2,0.7,0.4,1.4,0.6,2c0.2,0.6,0.4,1.1,0.5,1.4c0.1,0.3,0.2,0.5,0.2,0.5s-0.1-0.2-0.4-0.4
											c-0.2-0.3-0.6-0.7-0.9-1.3c-0.3-0.6-0.6-1.2-0.9-2c-0.3-0.7-0.5-1.6-0.6-2.4c-0.1-0.8-0.3-1.7-0.3-2.5c0-0.8,0-1.5,0-2.1
											C157.9,227.9,158.1,227.1,158.1,227.1z"/>
									</g>
									<g>
										<path class="st23" d="M217.4,237.4c0,0,0-0.3-0.1-0.8c-0.1-0.5-0.1-1.2-0.2-2.1c-0.2-1.7-0.4-4-0.5-6.3
											c-0.1-2.3-0.2-4.6-0.1-6.3c0.1-1.7,0.2-2.9,0.2-2.9s0,0.3,0.1,0.8c0.1,0.5,0.1,1.2,0.2,2.1c0.2,1.7,0.4,4,0.5,6.3
											c0.1,2.3,0.2,4.6,0.1,6.3C217.6,236.3,217.4,237.4,217.4,237.4z"/>
									</g>
									<g>
										<path class="st23" d="M218.9,228.8c0.3-0.8,0.6-1.6,0.8-2.4l0.7-2.5c0.5-1.6,0.9-3.3,1.5-4.9l0.2-0.4l0.4,0.2l0.8,0.4
											c0.2,0.2,0.5,0.4,0.7,0.6c0.2,0.3,0.4,0.5,0.5,0.8c0.1,0.3,0.2,0.6,0.2,0.9c0,0.3,0.1,0.6,0.1,0.9c0,0.3,0,0.6-0.1,0.9
											c-0.1,0.3-0.1,0.6-0.2,0.8c-0.1,0.3-0.1,0.5-0.2,0.8c-0.7,2.1-1.8,4-2.8,5.9l-0.6-0.5c1.2-0.8,2.4-1.3,3.7-1.9
											c1.2-0.6,2.4-1.2,3.5-2.1c-0.4,0.5-1,1-1.5,1.4c-0.5,0.4-1.1,0.8-1.7,1.1c-1.2,0.7-2.4,1.3-3.4,2.1l-1.1,0.8l0.5-1.3
											c0.4-1,0.9-2,1.4-3c0.4-1,0.9-1.9,1.2-2.9c0.1-0.2,0.1-0.5,0.2-0.7c0.1-0.2,0.1-0.5,0.2-0.7c0.1-0.3,0.1-0.5,0.1-0.7
											c0-0.3,0-0.5,0-0.7c0-0.2-0.1-0.4-0.2-0.7c-0.1-0.2-0.2-0.4-0.3-0.6c-0.2-0.1-0.3-0.3-0.5-0.5l-0.6-0.4l0.6-0.2
											c-0.7,1.5-1.2,3.1-1.8,4.7C220.4,225.7,219.7,227.3,218.9,228.8z"/>
									</g>
								</g>
							</g>
						</g>
						<path class="st12" d="M217.8,280.4c-2.2-1.1-2.8-1.5-5.1-1.8c-3.6-0.3-9.8,1.4-14.4,2.5c-0.4,0.1-0.9,0.2-1.4,0.3
							c-0.2,0-0.4,0.1-0.5,0.1c-4.7,0.8-10.7,0.3-14.9-0.3c-7.1-1-13.8-2.6-20.7-4.7c-3.3-1-7.6-2.4-10.7-0.2
							c-3.1,2.1-2.8,6.2-2.6,9.7c0,1.4,0,3.8,0.7,5c1,1.6,3.3,1.2,5,1.2c4,0,7.6-0.5,11.6-0.7c9.8-0.6,19.4-2.6,29.3-3.4
							c0.4,0.6,0.9,1.1,1.6,1.6c2.9,2.3,10.1-0.6,13.2-1.2c0.8,0.4,1.7,0.8,2.8,1.5c1.3,0.9,1.5,1.5,3.7,2.3c1.4,0.2,0-1.7-1-2.7
							c-1.4-1.3-3.4-2.9-4.1-4.6c1.2-0.7,7.8,7.9,9.1,6c0.7-0.4-1.9-3-2.9-4.1c-1.4-1.3-2.4-2.8-3.7-4.1c2.8,0.8,7.5,7.8,8.6,6.5
							c0.8-1-4.2-6.2-6.3-8c3.3,1.3,5.1,5.1,7.7,5.5C223.6,286.2,219.6,281.4,217.8,280.4z"/>
					</g>
				</g>
			</g>
			<g>
				<g>
					<g>
						<path class="st24" d="M271,248.1c-0.2-2.1-1.2-3.9-1.9-5.9c-0.8-2.1-0.9-4.4-0.6-6.6c0.7-4.2,3.2-8,6.4-10.8
							c1.8-1.6,3.8-2.7,6.1-3.6c1.5-0.6,3.1-1.2,4.5-2.1c2.9-2.1,3.6-6.2,2.7-9.5c-2.1-8.2-10.6-13.1-15.5-19.5
							c-6.3-8.3-5.6-19.7-5.7-29.6c-0.1-11.9-0.2-23.7,0.2-35.6c0-0.3-1-0.4-1-0.1c-0.4,10.7-0.4,21.3-0.3,32
							c0.1,5.3,0,10.6,0.4,15.8c0.3,4.7,0.8,9.5,3,13.8c3.8,7.5,11.5,11.8,15.9,18.9c2.4,3.8,3.8,9.9-0.2,13.3
							c-1.5,1.3-3.5,1.9-5.3,2.7c-1.9,0.7-3.5,1.7-5.1,3c-3.1,2.5-5.7,5.9-6.7,9.8c-0.6,2.1-0.7,4.4-0.2,6.6
							c0.5,2.6,2.2,4.8,2.4,7.5C270,248.3,271,248.3,271,248.1L271,248.1z"/>
					</g>
				</g>
				<g>
					<path class="st6" d="M277.7,82.5h-21.1c-3.3,0-5.9,2.7-5.9,5.9v31c0,3.3,2.7,5.9,5.9,5.9h0.8c-0.1,2.9-0.1,7.4,1.4,7.4
						c3.4,0,3.1-4.4,2.8-7.4H273c-0.1,2.9-0.1,7.4,1.4,7.4c3.4,0,3.1-4.4,2.8-7.4h0.6c3.3,0,5.9-2.7,5.9-5.9v-31
						C283.6,85.1,281,82.5,277.7,82.5z"/>
				</g>
				<g>
					<path class="st24" d="M261.7,123c-1.7,0-4,0.3-5.5-0.7c-2.6-2.1-2.4-6-2.4-9c0-3.5,0-10.4,0-14c0-2.4,0.5-3.1,3.3-3.3
						c1.9-0.2,3.8,0,5.7,0.2c3.8,0.3,7.6,0.2,11.4,0c4.5-0.2,6.6,0.5,6.2,5.7c-0.2,3.8,0,10,0,13.9c0,4.3-0.9,6.8-5.7,7.3
						c-0.9,0.2-1.6,0.2-2.4,0L261.7,123z"/>
				</g>
				<rect x="258.1" y="105.1" class="st22" width="17.4" height="6.2"/>
			</g>
		</g>
		<g>
			<g class="st5">
				<ellipse class="st6" cx="364.2" cy="430.5" rx="53.9" ry="11.6"/>
			</g>
			<g>
				<g>
					<g>
						<g>
							<g>
								<path class="st25" d="M378.5,408.1c5-5.5,9-11.5,12.2-17.9c-3.6-2.6-6.4-6.3-9.3-9.6c-3.2-3.1-1.8-3.4-6.1-2.4
									c-3.2,0.7-5,3.1-6.1,5.8c-2.2,6.1-1.4,26.8,0.7,30.9l0.2,0.9C373.4,413.5,376.7,410.1,378.5,408.1z"/>
							</g>
							<g>
								<path class="st26" d="M390.7,390.3c-3.2,6.4-7.2,12.4-12.2,17.9c-1.9,2-5.1,5.4-8.4,7.6l1.6,6.9c10-5.8,19-19.3,22.9-30.2
									C393.2,391.9,391.9,391.1,390.7,390.3z"/>
							</g>
						</g>
						<g>
							<path class="st27" d="M357,357.9c-5.7-9.2-11.1-20-14.7-30.5c-4.7-13.6-2.2-32.2-2.2-46.5c0-19.7,1.1-40-1.8-59.4
								c5-0.3,10.4,1,15.8,0.7c6.8-0.7,12.5-4.4,14.3,3.4c2.9,10.9,1.1,29.2-1.8,40L357,357.9z"/>
						</g>
					</g>
					<g>
						<g>
							<g>
								<path class="st28" d="M371.9,422.4c-0.3-10,1-20.8,2.2-30h-6.7c-1.3,6.6-4.3,13.5-8.1,19.1c-3.4,5.1-7.5,8.4-13.1,10.9
									C349.4,425.1,365.2,423.4,371.9,422.4z"/>
							</g>
							<g>
								<path class="st27" d="M346.3,422.4c-0.2,0.1-0.4,0.2-0.7,0.3c-4.3,1.8-13.7,3.1-13.2,8.9c7,1.5,13.7,1.3,20.4,0
									c6.7-1.3,13.2,0.5,19.6-0.8c-0.4-2.7-0.6-5.5-0.6-8.4C365.2,423.4,349.4,425.1,346.3,422.4z"/>
							</g>
						</g>
						<g>
							<g>
								<path class="st29" d="M353.4,396.9c0-33.6,0-67.5-2.2-101.1c-1.1-15.6-0.7-31.2-0.7-46.8c0-9.5-1.8-20.4-0.7-29.9
									c1.1-7.8,17.9-9.8,25.5-11.9c8.6-2.4,17.6-6.8,25.1,0.3c6.1,6.1,1.4,13.6,0,20.7c-2.9,14.9-6.5,30.2-9.7,45.1
									c-3.2,14.6-10,29.9-10,44.8c0,13.6-0.4,27.2,0,41.7c0.4,12.2,1.1,24.1,2.9,36.3c-10.4,1-19.4,2.7-29.8,1L353.4,396.9z"/>
							</g>
							<g>
								<path class="st27" d="M355.9,323.6c0.3,2.4,0.5,4.8,0.9,7.2c0.2,1.2,0.3,2.4,0.5,3.6c0.2,1.2,0.4,2.4,0.6,3.6
									c0.2,1.2,0.5,2.4,0.7,3.5c0.1,0.6,0.3,1.2,0.4,1.8c0.1,0.6,0.3,1.2,0.5,1.7c0.2,0.6,0.4,1.1,0.6,1.7
									c0.2,0.6,0.4,1.1,0.7,1.7c0.2,0.6,0.5,1.1,0.7,1.6c0.3,0.5,0.6,1,0.9,1.5l-0.8,0.1c0.2-0.6,0.4-1.1,0.6-1.7
									c0.1-0.6,0.3-1.2,0.4-1.8c0.1-0.6,0.2-1.2,0.2-1.8c0.1-0.6,0.1-1.2,0.1-1.8c0-0.6,0.1-1.2,0-1.8c0-0.6,0-1.2,0-1.8
									c0-1.2-0.1-2.5-0.3-3.7c-0.1-1.2-0.2-2.5-0.4-3.7c-0.2-1.2-0.3-2.5-0.5-3.7c-0.4-2.5-0.8-4.9-1.3-7.4l0.9-0.2
									c0.8,2.4,1.7,4.7,2.6,7.1l2.8,7c0.9,2.3,1.9,4.7,2.7,7.1c0.4,1.2,0.8,2.4,1.2,3.6c0.4,1.2,0.7,2.4,1.1,3.6
									c-0.4-1.2-0.8-2.4-1.3-3.6c-0.4-1.2-0.9-2.3-1.4-3.5c-0.9-2.3-1.9-4.6-2.9-6.9l-2.9-6.9c-1-2.3-1.9-4.7-2.7-7.1l0.9-0.2
									c0.9,4.9,1.9,9.8,2.3,14.8c0.1,1.2,0.2,2.5,0.2,3.8c0,0.6,0,1.3,0,1.9c0,0.6,0,1.3-0.1,1.9c0,0.6-0.1,1.3-0.1,1.9
									c0,0.6-0.2,1.3-0.3,1.9c-0.1,0.6-0.3,1.2-0.4,1.9c-0.2,0.6-0.4,1.2-0.6,1.8l-0.3,0.9l-0.5-0.8c-0.3-0.5-0.6-1.1-0.9-1.6
									c-0.2-0.6-0.5-1.1-0.8-1.7c-0.2-0.6-0.5-1.1-0.6-1.7c-0.2-0.6-0.4-1.2-0.5-1.8c-0.2-0.6-0.3-1.2-0.5-1.8
									c-0.1-0.6-0.3-1.2-0.4-1.8c-0.2-1.2-0.5-2.4-0.7-3.6c-0.2-1.2-0.4-2.4-0.5-3.6c-0.1-1.2-0.3-2.4-0.4-3.6
									C356.3,328.4,356.1,326,355.9,323.6z"/>
							</g>
							<g>
								<path class="st27" d="M364.2,320.2c0,0,0.2,0.2,0.5,0.6c0.3,0.4,0.8,1,1.3,1.6c1.1,1.4,2.5,3.2,3.7,5.1c0.6,1,1.2,2,1.7,3
									c0.5,1,0.9,1.9,1.1,2.8c0.1,0.4,0.2,0.8,0.3,1.1c0.1,0.3,0.2,0.6,0.2,0.9c0.1,0.5,0.1,0.8,0.1,0.8s-0.1-0.3-0.3-0.7
									c-0.2-0.5-0.5-1.1-0.9-1.9c-0.4-0.8-0.8-1.6-1.4-2.6c-0.5-0.9-1.1-1.9-1.7-2.9c-1.2-1.9-2.5-3.9-3.3-5.4
									C364.7,321.3,364.2,320.2,364.2,320.2z"/>
							</g>
						</g>
					</g>
				</g>
				<g>
					<path class="st30" d="M328.2,78.7c1.4-2.3,5.6-3.2,6,0.5l0,0c0.7-4.1,10.3-5.3,7.8,0.3c3.1-4.6,11.7,1.3,6.7,5.6
						c3.5-2.8,8.1,3.5,4.3,5.5c2.9-0.5,5.1,5.2,1.6,5.8c1.9,0.1,3.5,5.3,0.6,6.4c2,1.2,1.8,4.4-0.3,5.7c1.3,2.3-0.1,5.1-2.7,5.6
						c0,2.7-6.5,5.7-8.9,5.9c-1.6,0.2-3.8-0.5-5.5-0.8c-2.2-0.9-3-0.8-3.1-4c-3.1,1.4-6.6-2.1-4-5c-3.1,1.6-7.5-3.1-4.8-5.5
						c-3.7,0.9-6.5-3.7-3.6-6.4c-3.7-2.1-3.8-6.4,0.6-8.1c-3.2-2.7-1.4-6.9,2.3-7.5c-3.2-2.7,1.3-3.1,1.8-3.4L328.2,78.7z"/>
				</g>
				<g>
					<g>
						<g>
							<path class="st31" d="M331.6,137.5c2.2-1.9,3.3-5.6,4.6-8.1c1.5-3,3.4-5.8,5.5-8.4c1.2-1.7,5-6.6,5-9.7
								c-1.8,0.1-3.6,0.4-5.5,0.9c-5,1.3-8.4,4.5-10.7,8.6c0,0.9-0.1,1.8-0.1,2.7C330.4,126.7,328.9,135.4,331.6,137.5z"/>
						</g>
						<g>
							<g>
								<path class="st32" d="M386.8,179.2c-7.4-13.3-8.1-28.9-11.2-42.9c-3.2-13.1-14.3-25.7-28.8-24.9c0,3.1-3.8,8-5,9.7
									c-2.1,2.6-4,5.3-5.5,8.4c-1.4,2.5-2.5,6.2-4.6,8.1c-2.7-2.1-1.2-10.8-1.1-14c0.1-0.9,0.1-1.8,0.1-2.7
									c-5,8.8-5.3,21.8-7.2,30.6c-2.6,14.2,6.6,27.7,7.9,41.9c1.2,12.8,0.4,27.2-1.6,40c-0.3,0.7-1.1,3.5-0.8,3.1l1.8,0.2
									c10.4,6.9,28.1,7.9,40.1,5.4c3.5-0.7,8.5-1.8,11.6-3.5c5.2-2.5,3.7-2.7,3.6-8.2c0.3-7.9,0.5-17.4,2.3-25.1
									c4.1,9.2,8.1,20.7,14.2,29c6.2-3.3,11.6-10.3,13.9-16.6C405.6,207.1,394.2,192.2,386.8,179.2z"/>
							</g>
							<g>
								<path class="st27" d="M377,210.6c0,0-0.6,0.2-1.7,0.7c-1.1,0.4-2.6,1-4.5,1.6c-1.9,0.6-4.1,1.3-6.4,2
									c-2.4,0.7-4.9,1.3-7.5,1.9c-1.3,0.3-2.6,0.5-3.9,0.7c-1.3,0.2-2.5,0.4-3.8,0.6c-1.2,0.2-2.4,0.3-3.5,0.4
									c-1.1,0.1-2.2,0.2-3.2,0.3c-1,0.1-1.9,0.1-2.7,0.1c-0.8,0-1.5,0-2.1,0c-1.2,0-1.8,0-1.8,0s0.7-0.1,1.8-0.2
									c1.1-0.1,2.8-0.3,4.7-0.5c1-0.1,2-0.3,3.1-0.4c1.1-0.1,2.3-0.4,3.5-0.5c2.4-0.4,5-0.9,7.6-1.4c2.6-0.5,5.1-1.1,7.5-1.7
									c2.4-0.6,4.6-1.1,6.5-1.7C374.4,211.3,377,210.6,377,210.6z"/>
							</g>
							<g>
								<path class="st27" d="M337,222.1c0.8,0.2,1.6,0.4,2.3,0.5c0.8,0.1,1.6,0.2,2.4,0.2c1.6,0.1,3.2,0.1,4.8,0
									c3.2-0.2,6.3-0.7,9.5-1c1.6-0.2,3.1-0.5,4.7-0.8c1.6-0.3,3.2-0.5,4.7-0.7c1.6-0.2,3.2-0.4,4.8-0.6c0.8-0.1,1.6-0.1,2.4-0.1
									c0.4,0,0.8,0,1.2,0.1c0.2,0,0.4,0.1,0.7,0.1c0.2,0.1,0.5,0.2,0.7,0.5l0,0l0,0c0.3,0.4,0.4,1.1,0.2,1.6
									c-0.2,0.5-0.6,0.9-1,1.2c-0.8,0.6-1.6,1-2.4,1.3c-1.7,0.6-3.4,1.1-5.1,1.5c-3.5,0.7-7,1.2-10.5,1.5
									c-0.9,0.1-1.8,0.1-2.7,0.1c-0.9,0-1.8,0-2.6,0l-5.3-0.2c-1.8-0.1-3.5-0.1-5.2-0.1c-0.9,0-1.7,0-2.6,0.1
									c-0.4,0-0.9,0.1-1.3,0.1c-0.2,0-0.4,0.1-0.6,0.1c-0.1,0-0.1,0.1-0.2,0.1c0,0,0,0,0-0.1l0-0.2c0.3,0.6,0.9,1.1,1.6,1.5
									c0.7,0.4,1.5,0.6,2.3,0.8c1.6,0.4,3.2,0.6,4.9,0.7l2.5,0.2c0.8,0.1,1.7,0.1,2.5,0.2c1.7,0.1,3.3,0.2,5,0.3
									c3.3,0.1,6.7,0,10-0.4c3.3-0.3,6.6-0.9,9.9-1.7c-6.5,1.7-13.2,2.7-19.9,2.6c-1.7,0-3.4-0.1-5-0.2c-0.8-0.1-1.7-0.1-2.5-0.2
									l-2.5-0.1c-1.7-0.1-3.4-0.3-5-0.7c-0.8-0.2-1.7-0.4-2.5-0.9c-0.8-0.4-1.6-1-2-1.9l0-0.1l0-0.1c0-0.3,0.2-0.6,0.3-0.7
									c0.1-0.1,0.3-0.2,0.4-0.2c0.3-0.1,0.5-0.1,0.7-0.2c0.5-0.1,0.9-0.1,1.4-0.2c0.9-0.1,1.8-0.1,2.7-0.1c1.8,0,3.5,0.1,5.3,0.1
									l5.3,0.2c0.9,0,1.7,0,2.6,0c0.8,0,1.7-0.1,2.6-0.2c3.5-0.3,7-0.8,10.4-1.5c1.7-0.4,3.4-0.8,5-1.4c0.8-0.3,1.6-0.7,2.2-1.2
									c0.3-0.2,0.6-0.5,0.7-0.8c0.1-0.3,0.1-0.6-0.1-0.9l0,0c0-0.1-0.5-0.2-0.8-0.3c-0.4-0.1-0.8-0.1-1.1-0.1
									c-0.8,0-1.6,0-2.4,0.1c-1.6,0.1-3.2,0.3-4.7,0.5c-1.6,0.2-3.2,0.4-4.7,0.7c-1.6,0.2-3.1,0.5-4.8,0.7
									c-3.2,0.3-6.4,0.6-9.6,0.7c-1.6,0-3.2,0-4.8-0.1c-0.8-0.1-1.6-0.2-2.4-0.3C338.5,222.5,337.8,222.3,337,222.1z"/>
							</g>
						</g>
					</g>
					<g>
						<g>
							<path class="st22" d="M338.6,157.1c-0.1-5.1-2.7-9.6-3.2-14.7c3.6-0.3,10.2-2.3,13.5-1.6c3.7,1,3.1,2.1,3.5,6.2
								c0.2,2,0.8,4.4,0.2,5.8L338.6,157.1z"/>
						</g>
						<g>
							<path class="st7" d="M341.1,144.6c-0.2-2.4-0.8-4.4-1.3-6.7c1-0.4,1.8-0.5,2.8-0.6l0,0.3c0.2,2,0.5,5.4,1,6.4L341.1,144.6z"
								/>
						</g>
					</g>
					<g>
						<path class="st27" d="M337.9,167.6c7.7,2,19.3,0.9,27.1-0.5c5.5-0.9,7.3-3.6,1.4-5.9c-5.2-2.2-10.4-2-15.8-2
							c-4.9,0-23.9,0.1-14.2,7.8L337.9,167.6z"/>
						<g>
							<path class="st28" d="M337.4,159c-3,4-6.1,12.9-9,18.2c-2.9,5-5.8,10.3-9.8,15c-4.5,5.2-10.4,9.4-14.9,14.8
								c-5.5,6.2-9.5,14.7-17.3,18.3c-4.7,2.1-5,2.4-6.8,6.8c-1.4,3.7-7.8,8.4-6.6,9.4c1.9,0.6,4.6,0.2,5.6-0.9
								c-2.7,3.8-7.3,17,0.3,8.7c4.1-4.4,2.4-2.7,5.2-2.6c0.8,0.1,4.5-2.2,5.2-2.5c1.6-0.6,1.9,0.6,3.5-0.7
								c3.8-3.3,2.5-11.4,5.9-15.5c5-5.7,11.4-10.7,16.9-16.5c7.8-8.2,17-14.9,22.3-24.8c1.7-3.4,14.3-26.8,13.8-27L337.4,159z"/>
						</g>
						<g>
							<g>
								<path class="st32" d="M349.5,127.2c-2.1,6.1-5.1,11.9-7.8,17.7c-2.6,6-5.7,11.6-7.3,18c5.6-1.6,12.2-1.1,18-0.9
									c5.9,0.3,12.1-0.8,17.1,2.2c0.6-3.8,2-6.3,2.8-9.9c0.8-3.5,2.5-8,2.1-11.5"/>
								<path class="st27" d="M349.5,127.2c-2,6.2-4.9,12-7.5,17.9l-3.9,8.9c-1.3,3-2.4,6-3.1,9.1l-0.6-0.6c2.9-0.8,5.9-1.1,8.9-1.2
									c3-0.1,6,0.1,8.9,0.3c2.9,0.2,5.9,0,8.9,0.1c1.5,0.1,3,0.2,4.5,0.6c0.7,0.2,1.5,0.4,2.2,0.7l1,0.5l1,0.6l-0.6,0.3
									c0.3-1.8,0.9-3.6,1.5-5.4c0.3-0.9,0.6-1.7,0.9-2.6c0.3-0.9,0.5-1.8,0.7-2.6c0.5-1.8,1.1-3.5,1.5-5.3
									c0.4-1.8,0.8-3.6,0.6-5.5c0.3,1.8,0,3.7-0.4,5.5c-0.4,1.8-0.9,3.6-1.3,5.4c-0.2,0.9-0.4,1.8-0.7,2.7
									c-0.3,0.9-0.5,1.8-0.8,2.6c-0.6,1.7-1.1,3.5-1.4,5.3l-0.1,0.5l-0.5-0.3l-1-0.5l-1-0.4c-0.7-0.2-1.4-0.5-2.1-0.6
									c-1.4-0.3-2.9-0.5-4.3-0.5c-2.9-0.1-5.9,0.1-8.9,0c-3-0.1-5.9-0.3-8.9-0.2c-2.9,0-5.9,0.3-8.7,1.1l-0.8,0.2l0.2-0.8
									c0.8-3.2,2-6.2,3.3-9.2c1.3-3,2.8-5.8,4.1-8.8l4.2-8.7C347,133.2,348.3,130.2,349.5,127.2z"/>
							</g>
							<g>
								<path class="st27" d="M365,156.8c-1.7,0-3.4,0-5,0c-1.7,0-3.4-0.1-5.1-0.2c-1.7-0.1-3.4-0.3-5-0.7c-0.8-0.2-1.7-0.4-2.5-0.6
									c-0.8-0.2-1.6-0.5-2.4-0.9l-0.5-0.2l0.4-0.4c0.7-0.8,1.6-1.3,2.5-1.6c0.9-0.3,1.8-0.5,2.8-0.7c1.9-0.3,3.7-0.4,5.6-0.5
									c1.9-0.1,3.7,0,5.6,0c0.9,0,1.8,0,2.8,0c0.4,0,0.9-0.1,1.3-0.2c0.2,0,0.4-0.1,0.4-0.1c0,0,0,0.1,0,0.1c0,0,0-0.1-0.1-0.1
									l-0.1-0.3c0,0.1,0,0.1,0,0c0,0-0.1-0.1-0.2-0.2c-0.1-0.1-0.3-0.2-0.5-0.3c-0.4-0.2-0.7-0.4-1.1-0.6
									c-0.8-0.3-1.6-0.6-2.4-0.9c-1.6-0.6-3.3-1.1-4.9-1.5c-3.3-0.8-6.7-1.4-10.2-1.3c1.7-0.2,3.5-0.2,5.2,0
									c1.7,0.1,3.4,0.4,5.1,0.7c1.7,0.3,3.4,0.8,5,1.3c0.8,0.3,1.7,0.6,2.5,0.9c0.4,0.2,0.8,0.4,1.2,0.6c0.2,0.1,0.4,0.2,0.6,0.4
									c0.1,0.1,0.2,0.2,0.3,0.3c0.1,0.1,0.2,0.3,0.2,0.6l-0.1-0.3c0.1,0.1,0.2,0.2,0.3,0.4c0.1,0.2,0,0.6-0.1,0.8
									c-0.3,0.3-0.6,0.3-0.9,0.4c-0.5,0.1-1,0.2-1.5,0.2c-0.9,0.1-1.9,0.1-2.8,0.1l-5.5,0c-1.8,0-3.7,0.1-5.5,0.4
									c-0.9,0.1-1.8,0.3-2.6,0.6c-0.8,0.3-1.6,0.7-2.1,1.3l-0.2-0.6c0.7,0.3,1.5,0.6,2.3,0.9c0.8,0.3,1.6,0.5,2.4,0.7
									c1.6,0.4,3.3,0.6,4.9,0.8c1.7,0.2,3.3,0.3,5,0.5L365,156.8z"/>
							</g>
						</g>
					</g>
				</g>
				<g>
					<g>
						<path class="st30" d="M293.9,76.5c-4.8,0.7-6.9,7.3-7.5,11.7c-1.3,12.1,12.5,24.1,21.9,11.5c0.7-0.8,1.4-1.9,2.1-3L293.9,76.5
							z"/>
					</g>
					<g>
						<path class="st28" d="M334,127.2c-2.7-3.5-5.5-7.3-8.2-11c-1.2-1.8-5.8-5.8-5.8-7.8c0-2,4.9-7.1,6.4-8.6
							c2.9,2.1,4.8,5.5,7.6,8c2.4,2.2,6,4.9,8.1,6.2L334,127.2z"/>
					</g>
					<g>
						<path class="st28" d="M299.4,72.2c-4.8,1.1-7.9,6.2-8.7,10.7c-0.6,3.3-0.2,7.5,1.2,10.6c2,3.6,5.6,5.8,7.4,9.4
							c1.9,3.4,2.3,6.9,5.4,9.7c2.9,2.3,8.8,3.6,12.5,3.3c0,0,3.4-2,8.4-8.6c2.5-3.3,2.7-8.4,2.6-12.5c0-8-7-26.1-18.6-24.7
							L299.4,72.2z"/>
					</g>
					<g>
						<path class="st33" d="M328.3,94.4c-1.2-0.9-2.5-2-3.7-3.4c-1.2-1.4-1.8-3.4-3-5c-1.2-1.8-0.7-1.5-3.2-1.6
							c-7.4-0.3-18.9,2-25.6-2.1c-10.1-6,8.7-15,14.5-16.6c8.3-2,16.7,1,20.7,7.9c3.6,5.8,3.4,14.9,0.3,20.6L328.3,94.4z"/>
					</g>
					<g>
						<path class="st28" d="M327.8,95.6c-2.6-2.8-1.7-9,2.6-10.3c3.3-0.8,5.7,3.2,4.9,6c-0.8,2.5-5.1,4.9-7.3,5.1L327.8,95.6z"/>
					</g>
				</g>
				<g>
					<g>
						<path class="st34" d="M308.5,111.7c0,0,0.2,0,0.5,0c0.3,0,0.7,0,1.2-0.1c1-0.1,2.3-0.2,3.4-0.6c0.3-0.1,0.5-0.3,0.7-0.4
							c0.2-0.2,0.4-0.4,0.6-0.6c0.2-0.2,0.3-0.4,0.5-0.7c0.1-0.2,0.2-0.5,0.3-0.7c0.2-0.4,0.3-0.8,0.4-1.1c0.1-0.3,0.1-0.4,0.1-0.4
							s0,0.2,0.1,0.5c0,0.1,0.1,0.3,0,0.5c0,0.2,0,0.5,0,0.7c-0.1,0.3-0.1,0.5-0.2,0.8c-0.1,0.3-0.2,0.6-0.4,0.9
							c-0.1,0.2-0.2,0.3-0.3,0.4c-0.1,0.1-0.2,0.3-0.4,0.4c-0.3,0.2-0.6,0.4-0.9,0.6c-0.3,0.1-0.7,0.3-1,0.3c-0.3,0.1-0.7,0.1-1,0.1
							c-0.7,0-1.3,0-1.8-0.1c-0.5-0.1-0.9-0.2-1.2-0.3C308.6,111.8,308.5,111.7,308.5,111.7z"/>
					</g>
					<g>
						<path class="st34" d="M304,98.2c0.5,0.6,1,1.2,1.5,1.9c0.4,0.7,0.8,1.4,1.1,2.1c0.1,0.2,0.1,0.4,0.2,0.6
							c0,0.2,0.1,0.4,0.1,0.6c0,0.4,0.1,0.8,0.1,1.2c0,0.4,0,0.8,0.1,1.1c0,0.4,0.1,0.7,0.2,0.9l0,0c0.1,0.1,0.2,0.2,0.3,0.3
							c0.1,0.1,0.2,0.1,0.4,0.2c0.3,0.1,0.6,0.1,0.9,0c0.3-0.1,0.6-0.3,0.8-0.5c0.1-0.1,0.2-0.3,0.3-0.4c0.1-0.2,0.1-0.3,0.2-0.5
							c0.1,0.4,0,0.8-0.1,1.1c-0.2,0.4-0.5,0.7-0.9,0.9c-0.4,0.2-0.8,0.3-1.3,0.2c-0.2,0-0.4-0.1-0.6-0.2c-0.2-0.1-0.4-0.2-0.6-0.4
							l0,0l0,0c-0.3-0.5-0.4-0.9-0.5-1.3c-0.1-0.4-0.1-0.8-0.1-1.2c0-0.4,0-0.8-0.1-1.1c0-0.2,0-0.4-0.1-0.5c0-0.1-0.1-0.3-0.1-0.5
							C305.3,101,304.6,99.6,304,98.2z"/>
					</g>
					<g>
						<path class="st35" d="M295.2,97.1c0,0-0.2-0.2-0.4-0.5c-0.2-0.3-0.3-0.8-0.1-1.3c0.1-0.1,0.1-0.3,0.2-0.4
							c0.1-0.1,0.2-0.2,0.3-0.3c0.2-0.2,0.4-0.2,0.6-0.3c0.4,0,0.6,0.1,0.6,0.1s-0.2,0.2-0.4,0.4c-0.2,0.2-0.3,0.5-0.4,0.7
							c-0.1,0.3-0.2,0.6-0.2,0.9C295.3,96.9,295.2,97.1,295.2,97.1z"/>
					</g>
					<g>
						<path class="st35" d="M309.8,88.1c0,0-0.1,0-0.3-0.1c-0.2-0.1-0.5-0.1-0.8-0.2c-0.3,0-0.7-0.1-1.1-0.1c-0.2,0-0.4,0-0.6,0
							c-0.2,0-0.4,0-0.6,0.1c-0.4,0-0.8,0.2-1.2,0.3c-0.4,0.1-0.7,0.2-1,0.4c-0.3,0.1-0.6,0.3-0.7,0.4c-0.2,0.1-0.3,0.2-0.3,0.2
							s0-0.1,0.1-0.3c0.1-0.2,0.3-0.4,0.5-0.7c0.5-0.5,1.4-1,2.4-1.2c1-0.2,2,0,2.6,0.4c0.3,0.2,0.6,0.4,0.7,0.5
							C309.8,88,309.8,88.1,309.8,88.1z"/>
					</g>
					<path d="M302.8,100.5c0.6,1.2,0.7,2.4,0.1,2.6c-0.6,0.3-1.5-0.5-2.1-1.7c-0.6-1.2-0.6-2.4-0.1-2.6
						C301.2,98.6,302.2,99.3,302.8,100.5z"/>
					<path d="M312,94.9c0.6,1.2,0.7,2.4,0.1,2.6c-0.6,0.3-1.5-0.5-2.1-1.7c-0.6-1.2-0.7-2.4-0.1-2.6C310.4,93,311.4,93.7,312,94.9z"
						/>
				</g>
			</g>
		</g>
	</g>
</g>
<g id="DESIGNED_BY_FREEPIK" class="st0">
</g>
</svg>
