<svg width="612" height="612" viewBox="0 0 612 612" fill="none" xmlns="http://www.w3.org/2000/svg">
<g id="ab+ 1">
<path id="Vector" d="M516.3 104.2C510 81 471 88.3 471 88.3C471 88.3 444.5 128.8 436.8 129.8C429.1 130.8 452.7 90.8 452.7 90.8C437.8 89.4 399.7 107.7 399.7 107.7C399.7 107.7 402.1 154.9 394.4 154C386.7 153 394.4 112.1 394.4 112.1C380 116.4 366.4 133.3 366.4 133.3C349.5 160.8 385.7 181 385.7 181C385.7 181 386.2 197.4 376.1 216.2C376.1 216.2 373.8 219.7 371.5 225.6H375.4C375.7 224.5 376.1 223.5 376.5 222.6C376.8 222 377.2 221.1 377.6 220.1C378.8 217.7 379.6 216 380.1 214.8C383.7 207.4 388.9 197.8 392.4 195.7C392.4 195.7 391.9 195.1 391.6 193.9C391.9 194.5 392.2 195.1 392.4 195.7C399.1 210.1 432.9 212.6 451.7 208.7C470.5 204.8 462.3 199.6 452.2 190.9C442.1 182.3 420.9 184.6 414.6 181.2C408.3 177.8 417.5 174.5 430 175.4C442.5 176.3 448.8 188.9 469 190.8C489.2 192.7 504.7 154.6 504.7 154.6C490.7 158.9 465.7 151.2 464.7 146.4C463.7 141.6 500.9 142.1 506.6 140.6C512.5 138.9 522.6 127.3 516.3 104.2Z" fill="#E0EAF7"/>
<path id="Vector_2" opacity="0.5" d="M30.3 492.9C11 464.3 55.6 428.7 55.6 428.7C55.6 428.7 124.5 437.9 132.8 430.4C141.1 422.9 75.4 411 75.4 411C87.9 393.4 143.5 369.2 143.5 369.2C143.5 369.2 192.6 416.2 198.8 406.9C205 397.6 153.2 367.5 153.2 367.5C171.5 355.9 202.5 357 202.5 357C248.2 364.5 236.2 422.8 236.2 422.8C236.2 422.8 253.5 438.7 283.5 445.4C283.5 445.4 289.4 446.2 298 449.2L294.3 453.5C292.8 452.9 291.4 452.3 290 451.8C290 451.8 290 451.8 289.9 451.8C289 451.5 287.7 451.1 286.1 450.7C282.4 449.8 279.7 449 277.9 448.4C266.5 445.4 251.1 442 245.7 443.8C245.7 443.8 245.4 442.7 244.5 441.2C244.9 442 245.3 442.9 245.7 443.8C255.1 464.7 226 503.7 204.2 520.5C182.4 537.3 184.3 523.4 184.5 504.3C184.7 485.2 207 464.3 209.3 454.3C211.5 444.3 199.3 451.1 188.5 465.6C177.8 480.1 185.5 498.7 168.6 522.5C151.7 546.3 95.8 527.3 95.8 527.3C113.6 516.2 128.8 481.7 124.5 476.1C120.2 470.5 85.8 511.3 78.8 516.2C71.6 521.3 49.6 521.4 30.3 492.9Z" fill="#B2CBEA"/>
<path id="Vector_3" d="M75.8 95.8C85.2 61.4 143.2 72.3 143.2 72.3C143.2 72.3 182.5 132.6 193.9 134C205.4 135.5 170.4 75.9 170.4 75.9C192.6 73.8 249.2 101.1 249.2 101.1C249.2 101.1 245.5 171.3 256.9 169.9C268.4 168.5 257 107.6 257 107.6C278.5 114.1 298.5 139.2 298.5 139.2C323.5 180.1 269.7 210.1 269.7 210.1C269.7 210.1 268.9 234.5 283.9 262.4C283.9 262.4 287.3 267.6 290.7 276.4H284.8C284.3 274.8 283.8 273.3 283.2 271.8C283.2 271.8 283.2 271.8 283.2 271.7C282.8 270.8 282.2 269.5 281.5 267.9C279.7 264.4 278.5 261.8 277.7 259.9C272.4 248.9 264.6 234.5 259.5 231.5C259.5 231.5 260.1 230.6 260.7 228.8C260.3 229.7 259.9 230.6 259.5 231.5C249.4 253 199.3 256.5 171.3 250.7C143.3 244.9 155.6 237 170.6 224.3C185.7 211.5 217.2 215 226.5 210C235.8 205 222.2 200 203.6 201.3C185 202.6 175.6 221.3 145.5 224.1C115.4 226.9 92.6 170.3 92.6 170.3C113.4 176.8 150.6 165.4 152.1 158.2C153.6 151 98.4 151.7 89.8 149.5C81.4 147.4 66.4 130.2 75.8 95.8Z" fill="#E0EAF7"/>
<path id="Vector_4" d="M31.6 271.9C34.3 245.7 78 246.6 78 246.6C78 246.6 114 285.9 122.5 285.5C131 285.2 98.3 245.9 98.3 245.9C114.3 241.7 158.9 254.8 158.9 254.8C158.9 254.8 164.7 306.5 172.9 304.1C181.1 301.7 165.5 258.5 165.5 258.5C182 260.6 199.6 276.6 199.6 276.6C222.7 303.6 187 332 187 332C187 332 189.4 349.9 203.7 368.5C203.7 368.5 206.8 371.8 210.4 377.9L206.1 378.6C205.6 377.5 205 376.5 204.4 375.5C204 374.9 203.4 374 202.7 372.9C201 370.6 199.8 368.8 199 367.5C193.8 360.1 186.4 350.6 182.3 349C182.3 349 182.7 348.2 182.9 346.9C182.7 347.6 182.5 348.3 182.3 349C177.5 365.9 141.3 374.5 120.2 373.6C99.1 372.7 107.1 365.5 116.5 354.4C125.9 343.3 149.4 341.9 155.6 337.2C161.8 332.4 151.3 330.4 137.8 333.7C124.4 337 119.8 351.7 98.1 357.4C76.5 363.1 53 324.5 53 324.5C69 326.7 94.8 313.9 95 308.5C95.2 303.1 55 310.2 48.4 309.7C41.9 308.9 28.9 298.2 31.6 271.9Z" fill="#E0EAF7"/>
<path id="Vector_5" d="M413.8 252.5C388.6 232.6 352.3 271.5 352.3 271.5C352.3 271.5 356 336.2 348.5 343.4C341 350.6 334.5 288.7 334.5 288.7C317.3 299 290.9 349.1 290.9 349.1C290.9 349.1 331.2 398 322.1 403.2C313 408.3 288.7 358.1 288.7 358.1C276.6 374.3 275.5 403.2 275.5 403.2C279.2 446.2 334.3 439.2 334.3 439.2C334.3 439.2 347.9 456.5 352 484.8C352 484.8 352.3 490.4 354.5 498.6L358.8 495.4C358.3 494 357.9 492.6 357.5 491.3C357.5 491.3 357.5 491.3 357.5 491.2C357.3 490.3 357 489.1 356.7 487.6C356.1 484.1 355.6 481.6 355.2 479.8C353.2 469 351.1 454.4 353.2 449.5C353.2 449.5 352.3 449.2 350.9 448.2C351.7 448.6 352.4 449 353.2 449.5C372 459.7 410.2 435.4 427.4 416.2C444.6 397.1 431.5 397.9 413.7 396.7C395.9 395.5 374.9 414.8 365.5 416.2C356.1 417.6 363.2 406.6 377.5 397.7C391.8 388.7 408.5 397.2 431.8 383.2C455.1 369.1 441.4 315.9 441.4 315.9C429.8 331.7 396.7 343.4 391.8 339C386.9 334.6 427.3 305.5 432.4 299.3C437.3 293 438.9 272.5 413.8 252.5Z" fill="#E0EAF7"/>
<path id="Vector_6" d="M564.9 278.7C580.8 299.7 548.2 328.8 548.2 328.8C548.2 328.8 495.1 324.6 489.1 330.7C483.1 336.8 533.8 343.2 533.8 343.2C525 357.2 483.4 378 483.4 378C483.4 378 443.9 344.1 439.6 351.4C435.2 358.8 476.1 379.7 476.1 379.7C462.6 389.4 438.8 389.7 438.8 389.7C403.5 385.9 410.2 340.8 410.2 340.8C410.2 340.8 396.3 329.3 373.1 325.5C373.1 325.5 368.6 325.2 361.8 323.2L364.5 319.8C365.6 320.2 366.8 320.6 367.9 320.9C367.9 320.9 367.9 320.9 368 320.9C368.7 321.1 369.7 321.3 371 321.6C373.9 322.1 375.9 322.6 377.4 323C386.3 324.9 398.2 326.8 402.3 325.2C402.3 325.2 402.5 326 403.3 327.2C403 326.6 402.6 325.9 402.3 325.2C394.3 309.6 414.9 278.6 430.9 264.9C446.9 251.1 446 261.8 446.7 276.5C447.4 291.1 431.1 308 429.8 315.8C428.5 323.5 437.6 317.8 445.2 306.3C452.8 294.8 446.1 280.9 458.1 261.9C470.1 243 513.6 255.2 513.6 255.2C500.4 264.4 490.2 291.5 493.8 295.5C497.4 299.6 521.9 267 527.1 262.9C532.1 258.7 549 257.7 564.9 278.7Z" fill="#E0EAF7"/>
<path id="Vector_7" d="M308.7 518.5H300C291.9 518.5 285.4 512 285.4 503.9V479.6C285.4 471.5 291.9 465 300 465H308.7C316.8 465 323.3 471.5 323.3 479.6V503.9C323.3 512 316.7 518.5 308.7 518.5Z" fill="white"/>
<path id="Vector_8" opacity="0.5" d="M596.7 472.9C599.2 507.3 542.8 516 542.8 516C542.8 516 487.7 473.7 476.7 476.1C465.8 478.5 516.8 521.5 516.8 521.5C497.2 530.6 436.9 523.8 436.9 523.8C436.9 523.8 417.8 458.6 407.7 463.6C397.7 468.6 427.6 520.4 427.6 520.4C406 521.4 379.6 504.9 379.6 504.9C343.7 475.6 383.1 431.1 383.1 431.1C383.1 431.1 376 408.7 353.3 388C353.3 388 348.6 384.4 342.6 377.5L347.9 375.6C348.9 376.9 349.8 378.1 350.8 379.2C350.8 379.2 350.8 379.2 350.8 379.3C351.5 380 352.4 381 353.6 382.2C356.3 384.8 358.3 386.8 359.6 388.3C368 396.6 379.6 407.2 385.3 408.3C385.3 408.3 385 409.3 385 411.2C385.1 410.3 385.2 409.4 385.3 408.3C387.6 385.5 432.2 366.2 459.5 362.5C486.8 358.8 478.2 369.9 468.6 386.4C459 402.9 429.1 409.9 422.2 417.4C415.3 424.9 429.3 425.2 445.8 417.9C462.3 410.6 464.9 390.7 491.4 378.4C517.9 366.2 556.9 410.5 556.9 410.5C535.9 411.2 505.6 433.6 506.6 440.6C507.6 447.6 557.7 429.3 566.2 428.5C575 427.7 594.2 438.6 596.7 472.9Z" fill="#B2CBEA"/>
<g id="bp">
<path id="Vector_9" d="M422.5 488.3H186.1C172 488.3 160.5 476.8 160.5 462.7V170.3C160.5 156.2 172 144.7 186.1 144.7H422.5C436.6 144.7 448.1 156.2 448.1 170.3V462.6C448.1 476.8 436.7 488.3 422.5 488.3Z" fill="white"/>
<path id="Vector_10" d="M334.8 122.2H273.9V153.4H334.8V122.2Z" fill="white"/>
<path id="Vector_11" d="M438.5 177.4V454.4C438.5 467.7 427.7 478.4 414.5 478.4H320C317.4 478.4 315.2 480.5 315.2 483.2V501.1C315.2 506.8 310.6 511.4 304.9 511.4H303.8C298.1 511.4 293.5 506.8 293.5 501.1V484C293.5 481 291 478.5 288 478.5H194.4C181.1 478.5 170.4 467.7 170.4 454.5V177.5C170.4 164.2 181.2 153.5 194.4 153.5H414.5C427.7 153.4 438.5 164.1 438.5 177.4Z" fill="#E85E53"/>
<path id="Vector_12" d="M438.5 177.4V454.4C438.5 467.7 427.7 478.4 414.5 478.4H320C317.4 478.4 315.2 480.5 315.2 483.2V501.1C315.2 506.8 310.6 511.4 304.9 511.4H303.8C298.1 511.4 293.5 506.8 293.5 501.1V484C293.5 481 291 478.5 288 478.5H194.4C181.1 478.5 170.4 467.7 170.4 454.5V419.3C170.2 419.3 356.6 341.7 438.5 177.4Z" fill="#D14A42"/>
<path id="Vector_13" d="M305.3 397.2C282.4 397.2 260.8 388.2 244.5 372C228.3 355.8 219.3 334.2 219.3 311.2C219.3 288.3 228.3 266.7 244.5 250.4C260.7 234.2 282.3 225.2 305.3 225.2C328.2 225.2 349.8 234.2 366.1 250.4C382.3 266.6 391.3 288.2 391.3 311.2C391.3 334.1 382.3 355.7 366.1 372C349.8 388.3 328.3 397.2 305.3 397.2ZM305.3 233.3C284.5 233.3 264.9 241.4 250.2 256.1C235.5 270.8 227.4 290.4 227.4 311.2C227.4 332 235.5 351.6 250.2 366.3C264.9 381 284.5 389.1 305.3 389.1C326.1 389.1 345.7 381 360.4 366.3C375.1 351.6 383.2 332 383.2 311.2C383.2 290.4 375.1 270.8 360.4 256.1C345.7 241.4 326.2 233.3 305.3 233.3Z" fill="white"/>
<path id="A-" d="M291.438 289.938C294.646 289.938 297.5 290.219 300 290.781C302.521 291.344 304.646 292.125 306.375 293.125C308.125 294.125 309.458 295.333 310.375 296.75C311.292 298.146 311.75 299.688 311.75 301.375V305.938C311.75 307.729 311.396 309.177 310.688 310.281C310 311.385 309.042 312.271 307.812 312.938C308.833 313.229 309.771 313.604 310.625 314.062C311.5 314.521 312.24 315.083 312.844 315.75C313.469 316.396 313.948 317.156 314.281 318.031C314.635 318.885 314.812 319.875 314.812 321V327.125C314.812 328.812 314.198 330.365 312.969 331.781C311.74 333.177 310.062 334.385 307.938 335.406C305.812 336.427 303.333 337.219 300.5 337.781C297.667 338.344 294.646 338.625 291.438 338.625C289.646 338.625 287.812 338.552 285.938 338.406C284.062 338.281 282.24 338.104 280.469 337.875C278.719 337.646 277.073 337.385 275.531 337.094C273.99 336.802 272.667 336.5 271.562 336.188V292.312C272.667 292 273.99 291.708 275.531 291.438C277.073 291.146 278.719 290.896 280.469 290.688C282.24 290.458 284.062 290.281 285.938 290.156C287.812 290.01 289.646 289.938 291.438 289.938ZM291.188 317.25C290.062 317.25 288.938 317.26 287.812 317.281C286.688 317.281 285.594 317.312 284.531 317.375C283.49 317.417 282.49 317.49 281.531 317.594C280.573 317.698 279.708 317.833 278.938 318V329.875C279.354 330.021 279.885 330.188 280.531 330.375C281.198 330.562 282.031 330.74 283.031 330.906C284.031 331.073 285.229 331.219 286.625 331.344C288.021 331.448 289.667 331.5 291.562 331.5C293.896 331.5 295.99 331.312 297.844 330.938C299.719 330.562 301.292 330.062 302.562 329.438C303.854 328.812 304.844 328.094 305.531 327.281C306.219 326.448 306.562 325.583 306.562 324.688V322C306.562 321.021 306.125 320.219 305.25 319.594C304.375 318.969 303.219 318.49 301.781 318.156C300.344 317.802 298.698 317.562 296.844 317.438C295.01 317.312 293.125 317.25 291.188 317.25ZM278.938 309.5C280.229 309.75 281.698 309.917 283.344 310C285.01 310.083 286.896 310.125 289 310.125C290.812 310.125 292.615 310.062 294.406 309.938C296.198 309.792 297.812 309.562 299.25 309.25C300.688 308.917 301.854 308.479 302.75 307.938C303.646 307.375 304.104 306.667 304.125 305.812V303.812C304.125 302.917 303.906 302.062 303.469 301.25C303.052 300.417 302.344 299.688 301.344 299.062C300.365 298.438 299.073 297.938 297.469 297.562C295.865 297.188 293.896 297 291.562 297C289.667 297 288.021 297.062 286.625 297.188C285.229 297.292 284.031 297.427 283.031 297.594C282.031 297.76 281.198 297.938 280.531 298.125C279.885 298.312 279.354 298.479 278.938 298.625V309.5ZM348.125 299.625V309.812H358.312V317.5H348.125V327.75H340.375V317.5H330.25V309.812H340.375V299.625H348.125Z" fill="white"/>
</g>
</g>
</svg>
