<?xml version="1.0" encoding="utf-8"?>
<!-- Generator: Adobe Illustrator 21.0.0, SVG Export Plug-In . SVG Version: 6.00 Build 0)  -->
<svg version="1.1" id="Слой_1" xmlns="http://www.w3.org/2000/svg" xmlns:xlink="http://www.w3.org/1999/xlink" x="0px" y="0px"
	 viewBox="0 0 3000 2000" style="enable-background:new 0 0 3000 2000;" xml:space="preserve">
<style type="text/css">
	.st0{fill:#FFFFFF;}
	.st1{fill:#EBF3FA;}
	.st2{fill:#D14842;}
	.st3{fill:#FFB27D;}
	.st4{fill:#9DB0F4;}
	.st5{fill:#163560;}
	.st6{fill:#2B478B;}
	.st7{fill:#233862;}
	.st8{fill:#AEC3FF;}
	.st9{fill:#FCA56B;}
	.st10{fill:#DFEBFD;}
	.st11{opacity:0.5;fill:#AFCDFB;}
	.st12{fill:#DFEBFA;}
	.st13{fill:#ED985F;}
	.st14{fill:#B5453C;}
	.st15{fill:#D4E4F8;}
	.st16{fill:#E85D52;}
	.st17{fill:#FFC197;}
	.st18{opacity:0.5;}
	.st19{fill:#EFA26F;}
	.st20{fill:#FFD3B6;}
	.st21{fill:#E2915A;}
	.st22{fill:#C65447;}
</style>
<rect class="st0" width="3000" height="2000"/>
<path class="st1" d="M231.2,1701.2c0,0-134.6-154.9-93.7-386.5c31-175.8,55.7-216.5,362.7-401.6c296.2-178.6,42.3-707.6,801.2-692.3
	c462.3,9.3,630.1-162.7,969.4,31.8c324.4,186,20.2,379.6,523,712.1c181.2,119.8,164.5,613.6-67.6,734.2L231.2,1701.2z"/>
<g>
	<g>
		<g>
			<path class="st0" d="M2242.8,1669.3H2067v-5.4h175.8c49.4,0,89.5-40.2,89.5-89.5v-414.3h5.4v414.3
				C2337.7,1626.8,2295.1,1669.3,2242.8,1669.3z"/>
		</g>
		<g>
			<path class="st2" d="M2243,1667.2h-175.8v-1.1H2243c50.5,0,91.7-41.1,91.7-91.7v-414.3h1.1v414.3
				C2335.7,1625.6,2294.1,1667.2,2243,1667.2z"/>
		</g>
	</g>
	<path class="st3" d="M2357.7,1148.4c0,0,0-1.4-1.5-3.4c-0.8-2.1-2.3-8.8-2.2-10.2c0.1-2.6-3-1.6-4.4,0.4c-0.5,0.7,0.2,3.5,0.1,4.4
		c-4.5-2.5-11.4-5-22.3-6.7c0,0-8.4-1.6-3.5,6c3.3,5.1,6.4,5.4,11.1,12.5c4.7,7.1,12.3,11.5,18.5,10.2l7,1.4l5.5-10.8L2357.7,1148.4
		z"/>
	<path class="st4" d="M2520.8,1132.8c0,0,33.6,128.5-68.5,107.2c-27.5-5.8-100.9-78.9-100.9-78.9s7.1-11.1,15.8-10
		c0,0,70.9,23,82.2,31.4c6.3,4.6,13.4-68.2,35.2-67.2C2506.2,1116.4,2520.8,1132.8,2520.8,1132.8z"/>
	<path class="st5" d="M2566.7,1676.3c0,0-1.9,30.2-7.7,30.7c-0.8,0.1-29.7,0.1-29.7,0.1l-36.9-0.2c0,0,0.2-8.9,11-10.8
		c10.8-1.9,28.8-9.5,35.3-23.7C2545.7,1657.3,2566.7,1676.3,2566.7,1676.3z"/>
	<path class="st6" d="M2568.9,1678.4c0,0-11.2,3.8-20,3.8c-9.8,0-18.6-2.7-18.6-2.7s-2.1-20.4-13.7-65.4
		c-6.1-23.6-14.8-53.9-27.2-91.5c-34.2-104.1-44.6-165-45.6-170.7c-0.1-0.3-0.1-0.5-0.1-0.5l0.1,0l105.2-46.2
		c0,0-13,143.4,3.6,198.5c2.3,7.7,4.3,16.7,6,26.4C2569.1,1589.8,2568.9,1678.4,2568.9,1678.4z"/>
	<path class="st7" d="M2558.6,1530l-42.1,84.1c-6.1-23.6-14.8-53.9-27.2-91.5c-34.2-104.1-44.6-165-45.6-170.7c0-0.2,0-0.3,0-0.5
		l105.2-46.2c0,0-13,143.4,3.6,198.5C2554.9,1511.4,2556.9,1520.3,2558.6,1530z"/>
	<path class="st5" d="M2484.6,1676.3c0,0-1.9,30.2-7.7,30.7c-0.8,0.1-29.7,0.1-29.7,0.1l-36.9-0.2c0,0,0.2-8.9,11-10.8
		c10.8-1.9,28.8-9.5,35.3-23.7C2463.6,1657.3,2484.6,1676.3,2484.6,1676.3z"/>
	<path class="st6" d="M2425,1308.6c0,0-1.4,92.9,14.7,207.1c16.1,114.1,10.6,162.6,10.6,162.6s11,3.6,15.5,3.9
		c11.4,0.9,23-2.7,23-2.7s23-114.2,16.4-171.3c-6.6-57.1,31.5-196,31.5-196L2425,1308.6z"/>
	<path class="st3" d="M2501.6,1087.4l-18.4,16.2l-30.1-1.3c0.1-2.4,0.6-12.5,1.1-21.7c0-0.5,0.1-1.1,0.1-1.6
		c0.4-7.8,0.8-14.5,0.8-14.5l25.7-16l9.6-6c0,0.2,0.4,8.5,0.5,9.7C2491.9,1073.9,2501.6,1087.4,2501.6,1087.4z"/>
	<path class="st8" d="M2418.9,1312.6c0.4,49.1,3.7,163.8,6.1,166.2c25.6,24.7,137.9-6.8,143.9-33.9c6-27.2-22.6-348.4-66.3-361.2
		c-9.1-2.7-57.5,13-57.5,13s-7.6,19.9-12.6,45.2c-1.8,9.4-7.9,76.3-11.4,121c-0.9,11.9-1.7,22.3-2.1,29.5
		C2418.8,1295.2,2418.8,1302.5,2418.9,1312.6z"/>
	<path class="st9" d="M2488.8,1053c-4.6,11.1-25.8,23-34.7,27.6c0-0.5,0.1-1.1,0.1-1.6c0.4-7.8,0.8-14.5,0.8-14.5l25.7-16
		C2486.8,1047.6,2490.7,1048.4,2488.8,1053z"/>
	<path class="st3" d="M2445.5,1065.6c0,0,46.5,4.3,48.8-24.7c2.2-29,9.8-48-19.8-52c-29.6-4-36.3,6.6-39.4,16.1
		C2432,1014.5,2433.5,1063.7,2445.5,1065.6z"/>
	<path class="st5" d="M2436.3,1002c0,0,9.5,31.2,15.8,28.4c6.3-2.8,12-5.1,13.1,4.7c1.1,9.8-5.7,22.8,14.9,20.2
		c20.6-2.6,38.6-61,30.9-69.7C2488.9,960.5,2405.7,972.2,2436.3,1002z"/>
	<path class="st4" d="M2457,1084.3c0.6-0.2,33.2-14.9,37-13.6s8.6,12.9,8.6,12.9l-57.5,13C2445.1,1096.6,2449.6,1087.4,2457,1084.3z
		"/>
	<path class="st4" d="M2418.9,1312.6c87.5-63.2,89.8-149.5,89.8-149.5c-41.6,23.5-74.8,57-87.6,99.6c-0.9,11.9-1.7,22.3-2.1,29.5
		C2418.8,1295.2,2418.8,1302.5,2418.9,1312.6z"/>
	<g>
		<rect x="2263.6" y="1052.2" class="st0" width="14.6" height="646.8"/>
		<g>
			<path class="st0" d="M2335,1160.1h-0.8c-12.6,0-22.9-10.3-22.9-22.9v-62h46.6v62C2357.9,1149.8,2347.6,1160.1,2335,1160.1z"/>
			<path class="st2" d="M2334.6,1155.9L2334.6,1155.9c-10.8,0-19.6-8.8-19.6-19.6v-13.8h39.2v13.8
				C2354.2,1147.1,2345.4,1155.9,2334.6,1155.9z"/>
		</g>
		<rect x="2263.6" y="1052.2" class="st0" width="104.3" height="11.6"/>
		<rect x="2331.1" y="1063.8" class="st0" width="8" height="14"/>
	</g>
	<path class="st3" d="M2290.8,1263.4c0,0-0.6-1.3-2.7-2.5c-1.6-1.5-5.8-6.4-6.4-7.7c-1.7-4-4-1.7-3.3,2.1c0.2,0.8,1.2,2.6,1.5,3.4
		c-5.1-0.4-12.5,0.2-23.1,3.3c0,0-8.3,2-0.7,6.9c5.1,3.3,8.1,2.2,15.3,6.7c7.3,4.5,16,5.3,21.1,1.5l6.9-1.6l0.5-12.2L2290.8,1263.4z
		"/>
	<path class="st8" d="M2484.5,1115.4c0,0,85.2,35.3-56.3,139.9c-22.6,16.7-131.7,24.8-131.7,24.8s-4-12.6,2.6-18.5
		c0,0,86.2-37.3,94.9-36.4c7.8,0.8,43-77.5,57.8-93.4C2466.7,1115.9,2484.5,1115.4,2484.5,1115.4z"/>
</g>
<path class="st10" d="M2120.6,425.1c-16.7-61.5-120.5-42.3-120.5-42.3s-70.5,107.6-91,110.2c-20.5,2.6,42.3-103.8,42.3-103.8
	c-39.7-3.8-141,44.9-141,44.9s6.4,125.6-14.1,123c-20.5-2.6,0-111.5,0-111.5c-38.4,11.5-74.3,56.4-74.3,56.4
	c-44.9,73,51.3,126.9,51.3,126.9s1.3,43.6-25.6,93.5l0,0c0,0-6.1,9.2-12.2,24.9h10.5c0.9-2.8,1.8-5.5,2.8-8.1c0,0,0,0,0,0
	c0,0,0-0.1,0-0.1c0.7-1.6,1.8-3.9,3-6.7c0,0,0,0,0,0c0,0,0,0,0,0c3.2-6.3,5.4-10.9,6.7-14.2c0,0,0,0,0,0
	c9.6-19.7,23.4-45.3,32.6-50.7c0,0-1.2-1.6-2.2-4.8c0.7,1.5,1.5,3.1,2.2,4.8c17.9,38.4,107.6,44.9,157.6,34.6
	c50-10.3,28.2-24.3,1.3-47.2c-26.9-22.9-83.3-16.8-100-25.8c-16.7-9,7.7-17.9,41-15.4s50,35.9,103.8,41
	c53.8,5.1,94.8-96.1,94.8-96.1c-37.2,11.5-103.8-9-106.4-21.8c-2.6-12.8,96.1-11.5,111.5-15.4
	C2110.4,517.4,2137.3,486.6,2120.6,425.1z"/>
<path class="st11" d="M828.6,1458.4c-51.2-75.9,67.2-170.6,67.2-170.6s183.1,24.5,205.2,4.6s-152.5-51.5-152.5-51.5
	c33.1-46.8,181.1-111,181.1-111s130.4,124.9,146.9,100.2s-121.1-104.7-121.1-104.7c48.6-30.9,131.1-27.8,131.1-27.8
	c121.5,19.9,89.7,174.8,89.7,174.8s46.1,42.3,125.7,60h0c0,0,15.7,2.1,38.6,10.1l-9.8,11.4c-3.9-1.7-7.7-3.2-11.5-4.5c0,0,0,0-0.1,0
	c-0.1,0-0.1,0-0.2-0.1c-2.4-0.7-5.9-1.8-10.2-3c0,0,0,0,0,0c0,0,0,0,0,0c-9.8-2.4-16.9-4.4-21.8-6.1c0,0,0,0,0,0
	c-30.4-8.1-71.2-17.1-85.7-12.1c0,0-0.7-2.8-3.1-7c1,2.2,2,4.5,3.1,7c24.9,55.6-52.4,159.1-110.4,203.8s-52.9,7.8-52.5-43
	c0.4-50.7,59.9-106.3,65.8-132.9c5.9-26.5-26.7-8.5-55.2,30.1c-28.5,38.6-7.9,88-52.9,151.3c-45,63.3-193.5,12.8-193.5,12.8
	c47.4-29.5,87.7-121.2,76.2-136c-11.5-14.8-102.8,93.6-121.4,106.7C938.4,1533.9,879.8,1534.2,828.6,1458.4z"/>
<path class="st12" d="M949.5,402.8c24.9-91.4,179.2-62.5,179.2-62.5s104.5,160.2,134.9,164.1c30.5,3.9-62.6-154.4-62.6-154.4
	c59.1-5.6,209.4,67.1,209.4,67.1s-9.9,186.7,20.6,182.9c30.5-3.8,0.3-165.7,0.3-165.7c57.1,17.3,110.3,84,110.3,84
	c66.5,108.7-76.6,188.4-76.6,188.4s-2,64.8,37.8,139.1l0,0c0,0,9,13.7,18.1,37.1l-15.6,0c-1.3-4.2-2.7-8.2-4.2-12.1c0,0,0,0,0-0.1
	c0-0.1,0-0.1-0.1-0.2c-1.1-2.4-2.6-5.8-4.5-10c0,0,0,0,0,0c0,0,0,0,0,0c-4.7-9.3-7.9-16.2-10-21.2c0,0,0,0,0,0
	c-14.2-29.3-34.7-67.4-48.4-75.4c0,0,1.7-2.4,3.3-7.1c-1.1,2.3-2.2,4.7-3.3,7.1c-26.8,57.1-160.1,66.4-234.4,51s-41.8-36.3-1.8-70.2
	c40.1-33.9,123.9-24.8,148.7-38.1c24.8-13.3-11.4-26.7-60.9-23c-49.5,3.7-74.4,53.2-154.4,60.7c-80,7.5-140.7-143.1-140.7-143.1
	c55.2,17.3,154.3-13,158.2-32.1s-142.8-17.4-165.7-23.2C964.5,540,924.5,494.2,949.5,402.8z"/>
<path class="st12" d="M832,871c7.2-69.7,123.3-67.3,123.3-67.3s95.6,104.4,118.4,103.5c22.7-0.9-64.3-105.2-64.3-105.2
	c42.5-11.2,161,23.7,161,23.7s15.3,137.5,37.1,131.1c21.8-6.4-19.8-121.1-19.8-121.1c43.8,5.7,90.7,48,90.7,48
	c61.7,71.4-33.1,146.9-33.1,146.9s6.3,47.5,44.4,97c0,0,0,0,0,0s8.2,8.9,17.7,24.9l-11.4,1.9c-1.4-2.9-2.9-5.7-4.5-8.3c0,0,0,0,0,0
	c0,0,0-0.1-0.1-0.1c-1.1-1.6-2.6-4-4.5-6.8c0,0,0,0,0,0c0,0,0,0,0,0c-4.6-6.2-7.8-10.9-9.8-14.3c0,0,0,0,0,0
	c-13.9-19.7-33.5-45-44.4-49.3c0,0,1-2,1.6-5.6c-0.5,1.8-1,3.7-1.6,5.6c-12.7,44.9-108.9,67.8-165,65.5
	c-56.1-2.3-34.9-21.4-9.8-51.1s87.5-33.1,104-45.8c16.5-12.7-11.5-18.1-47.3-9.4c-35.7,8.7-47.9,47.8-105.4,63
	c-57.5,15.1-120-87.5-120-87.5c42.4,5.9,111.1-28.2,111.6-42.5c0.5-14.4-106.4,4.5-123.8,3.1C859.5,969.4,824.8,940.8,832,871z"/>
<path class="st12" d="M1848,819.5c-67-52.9-163.4,50.5-163.4,50.5s9.9,172.1-10.1,191.2s-37.2-145.5-37.2-145.5
	c-45.8,27.5-116,160.6-116,160.6s107,130.1,82.9,143.7s-88.9-120-88.9-120c-32.2,43.1-35.1,119.9-35.1,119.9
	c9.9,114.4,156.3,95.7,156.3,95.7s36.1,45.9,47,121.1l0,0c0,0,0.8,14.8,6.7,36.6l11.3-8.4c-1.3-3.7-2.5-7.4-3.4-11c0,0,0,0,0-0.1
	c0-0.1,0-0.1,0-0.2c-0.5-2.3-1.2-5.6-2.1-9.7c0,0,0,0,0,0c0,0,0,0,0,0c-1.5-9.3-2.9-16-4.1-20.7c0,0,0,0,0,0
	c-5.4-28.8-10.9-67.4-5.3-80.6c0,0-2.5-0.8-6.2-3.4c2,1.1,4.1,2.2,6.2,3.4c50,27.1,151.6-37.5,197.3-88.4s10.9-48.7-36.3-51.9
	c-47.2-3.2-103.1,48.2-128.2,51.9s-6-25.4,31.9-49.2c37.9-23.8,82.4-1.2,144.4-38.6c62-37.4,25.5-179,25.5-179
	c-30.8,42-118.9,73.1-131.9,61.3c-13-11.8,94.3-89,107.8-105.4C1910.5,927,1914.9,872.5,1848,819.5z"/>
<g>
	<path class="st13" d="M617.4,1256.6c-6.3-20.3-33.8-24.1-44.8-5.9c-2,3.3-3.2,7-3.4,11.3c-0.6,23.8,46.3,115.8,52.5,123.9
		c11.3,14.8,79.7,50.5,79.7,50.5l14.5-2.1c0,0-8.2-5.2-16.7-13.7c-17.6-17.5-43.2-46.1-47.9-50
		C643.3,1363.8,629.4,1295.1,617.4,1256.6z"/>
	<path class="st14" d="M637.3,1140.3c0.4-1.5-33.2,15.2-34.9,17.1c-15.7,17.5-11.2,40.2-2.2,40.5c5.8,0.1,4.7,9.7,4.7,9.7l64.3-27.2
		C669.1,1180.3,661.4,1135.2,637.3,1140.3z"/>
	<path class="st14" d="M645.2,1143.8c0,0,2.3-25.1-25.7-25.1c0,0,8.5,2.3,12.9,6.9c0,0-17.9-10.5-37.3,5.6
		c-19.4,16.1-7.4,56.5-13.3,64.2c-5.9,7.7-28.9,9.2-26.1,34c2.8,24.8,73,55.9,68.5,76.4c0,0,27.5-40.5,7.8-58.9c0,0,9.6,9,10.6,19.8
		c0,0,2.6-21-10.7-27.7c-11.8-5.9-21.5-27.6-20.5-31.5C612.5,1203.7,645.2,1143.8,645.2,1143.8z"/>
	<path class="st6" d="M566.5,1685.7l-13.9-2c0,0-46.8-37.2-53.8-106.6c-0.7-7.1-0.9-14.2-0.3-21.5c0.1-0.8,0-1.7-0.5-2.4
		c0,0,0,0,0,0c-1.5-2.3-5.2-8.1-10.3-16.2c-5-8.1-13.5-23.3-22.9-40.4c-16.9-30.8-36.5-67.6-43.3-79.4
		c-21.5-37.4-11.1-62.5-11.1-62.5s59.9-5.9,76.3-20.3l5.9,9.1c0,0,13,57.5,12.4,57.7c0.6,2,1.3,3.9,1.9,6
		c10.2,31.6,22,71.1,28.5,103.3c3.6,18.1,5.5,33.9,4.5,44.6c-0.4,3.7,0.1,9.4,1.1,16.4C546.8,1612.8,566.5,1685.7,566.5,1685.7z"/>
	<path class="st7" d="M595.7,1703.4h-58.1c0,0-1.4-8.9,1.6-15.6c2.9-6.4,7.1-6.6,0.5-16.8c3.7,3.8,15.6,5.4,24,4.2
		c1,1.7,6.6,12.9,10.1,15.3C577.7,1693.3,594.6,1692.4,595.7,1703.4z"/>
	<path class="st7" d="M507,1407.2c-5.1,28-17.1,74.6-42.2,89.4c-16.9-30.8-36.5-67.6-43.3-79.4c-21.5-37.4-11.1-62.5-11.1-62.5
		s59.9-5.9,76.3-20.3l5.9,9.1c0,0,13,57.5,12.4,57.7C505.7,1403.2,506.4,1405.2,507,1407.2z"/>
	<path class="st6" d="M466.3,1359l0.2-10.9c-21.6,2.7-74.6-25.9-74.6-25.9s-22.6,15.1-25.7,58.1c-1.5,21-11.1,109.8-12.1,136.3
		c-0.4,9.6-0.5,16.5-0.6,19.2c0,0,0,0,0,0c0,0.8-0.4,1.6-0.9,2.2c-4.5,5.7-8.4,11.7-11.7,18c-33,61.4-15.8,144.9-15.8,144.9l7.7-2
		c0,0,27.9-86.6,46.2-124c3.1-6.3,5.9-11.3,8.3-14.1c6.9-8.3,14.1-22.5,21.2-39.5c13.5-32.2,26.6-74.7,35.9-107.6
		C444.9,1413.9,466.3,1359,466.3,1359z"/>
	<path class="st3" d="M593,1286.5c-35.4-8.1-12.8-57.8-10.7-57c4.9-1,15.7-9.6,25.3-26.4l1.3,1.1l21.7,19.1c0,0-5,7.4-9.2,14.7
		c-3.3,5.7-6.1,11.3-5.7,13.2C617.4,1252.6,602.4,1288.7,593,1286.5z"/>
	<path class="st4" d="M615.3,1249.6c0,0,6.2,12.3,9.5,22.9c3.3,10.6,11.6,44.5,11.6,44.5s-17.1,19.5-41,18.4c0,0-12.8-20.1-8.3-38.2
		C591.7,1279.1,615.3,1249.6,615.3,1249.6z"/>
	<path class="st13" d="M630.6,1223.3c0,0-5,7.4-9.2,14.7c-13.5-8.3-13.5-25.1-12.5-33.7L630.6,1223.3z"/>
	<path class="st3" d="M631.2,1232.9c0,0-32.8-18.3-21.1-38.5c11.7-20.3,15.3-36.3,36.8-25.5c21.4,10.8,21,20.9,18.8,28.6
		C663.3,1205.2,640,1237.1,631.2,1232.9z"/>
	<path class="st14" d="M671.1,1185.6c-1.5-9-6.1-9.9-9.3-9.3c-12.1-20-31.9-12.2-31.9-12.2c-10.6,13.3-25.9,15.5-25.9,15.5
		s3.8,7.1,19.5,11.5c4.8,1.3,10.2,0.5,15.5-1.2c-10.9,6.1-22.3,8.4-22.3,8.4c20.7,1.9,40.3-17,42.4-19c1,2.9,2.6,9.1,1.6,13.5
		c-1.4,6.1-6.8,17.1-3.5,18.6C657.3,1211.4,673.4,1199.1,671.1,1185.6z"/>
	<path class="st7" d="M371.2,1703.4h-58.1c0,0-1.4-8.9,1.6-15.6c2.9-6.4,7.5-9.4,6.4-17.2c3.7,3.8,9.7,8.1,18.1,6.9
		c1,1.7,6.6,10.6,10.1,13.1C353.1,1693.3,370,1692.4,371.2,1703.4z"/>
	<path class="st8" d="M597.1,1325.9c-7.5,2.6-18,4-28.7,5.2c-15.3,1.7-31,2.8-39.3,6.1c-1.6,0.6-6.3,2.6-11,6v0c0,0-0.1,0.1-0.3,0.2
		c-1.6,1.1-3.1,2.5-4.6,3.9c-2.2,2.3-4.1,4.9-5.3,7.9c-3,7.5,1,28.2,3.6,39.6c1,4.6-1.1,9.3-5.3,11.4c-5.8,3-11.5,5.8-17.1,8.3
		c-0.3,0.1-0.6,0.3-0.9,0.4c0.1-1.2,0.1-2.3,0.1-3.4c0-7.8-1-14.3-1-14.3c-1.4,7.9-6.6,16.4-11.4,23
		c-77.9,31.3-132.4,17.7-131.5,2.1c3.1-54.1,39.6-100.1,39.6-100.1c68-79.1,205.7-99.9,205.7-99.9s6.6-0.8,14.5,8.8
		c11.4,13.8,12,17.4,12,17.4S619.1,1318.3,597.1,1325.9z"/>
	<path class="st4" d="M568.4,1331.1c-15.3,1.7-31,2.8-39.3,6.1c-3.4-50.4,20.4-88.4,20.4-88.4S565.1,1312,568.4,1331.1z"/>
	<path class="st4" d="M511.5,1394.9c1,4.6-1.1,9.3-5.3,11.4c-5.8,3-11.5,5.8-17.1,8.3c-0.3-1-0.6-2-0.8-3c-0.9-3.9-1.3-8.7-1-14.3
		c1.3-23.9,17.6-42.1,26-49.9c-2.2,2.3-4.1,4.9-5.3,7.9C504.9,1362.8,508.9,1383.6,511.5,1394.9z"/>
	<path class="st4" d="M589.5,1222.3c0,0,6-7.6,10-7.3c0,0,16.4,22.9,16.5,33.5C616.1,1248.5,595.7,1221.3,589.5,1222.3z"/>
	<path class="st13" d="M746.7,1444.2c0,0-8.7,0.2-10.6-0.1c-1.8-0.3-4.3-1.1-6.8-1.2c-2.4-0.1-4.7,0.7-7,1.2c-0.3,0.1-0.7,0.1-1,0.1
		h-14.4c0,0-1.4-0.7-3-3.2c-0.7-1.1-0.8-3.7-2.3-4.6c-8.7-4.9,14.5-2.1,14.5-2.1s14.6-0.3,16,0.7
		C734.4,1436.8,747.2,1443.5,746.7,1444.2z"/>
	<path class="st13" d="M706.8,1444.2c0,0,8.9,2.6,11.3,4.2l2.5,1.6c0,0,1.5-1.6-0.8-3.5c-1.2-1-4.6-3.8-4.7-7
		C715,1436.3,705,1439.1,706.8,1444.2z"/>
	<g>
		<path class="st0" d="M844.7,1690.2L844.7,1690.2c-20.9,0-37.8-16.9-37.8-37.8v-238.8h75.6v238.8
			C882.5,1673.3,865.5,1690.2,844.7,1690.2z"/>
		<path class="st2" d="M844.7,1679.3L844.7,1679.3c-15.5,0-28.1-12.6-28.1-28.1v-84.9h56.2v84.9
			C872.8,1666.7,860.2,1679.3,844.7,1679.3z"/>
	</g>
	<g>
		<path class="st0" d="M957.5,1690.2L957.5,1690.2c-20.9,0-37.8-16.9-37.8-37.8v-238.8h75.6v238.8
			C995.4,1673.3,978.4,1690.2,957.5,1690.2z"/>
		<path class="st2" d="M957.5,1679.3L957.5,1679.3c-15.5,0-28.1-12.6-28.1-28.1v-108.5h56.2v108.5
			C985.6,1666.7,973.1,1679.3,957.5,1679.3z"/>
	</g>
	<g>
		<path class="st0" d="M675.3,1514.3L675.3,1514.3c-19.2-8.1-28.3-30.3-20.1-49.5l92.8-220l69.7,29.4l-92.8,220
			C716.7,1513.4,694.5,1522.4,675.3,1514.3z"/>
		<path class="st2" d="M682.2,1505.3l-5.3-2.2c-12.8-5.4-18.8-20.2-13.4-33l67-158.7l60.4,1.5l-75.6,179.1
			C709.8,1504.7,695,1510.7,682.2,1505.3z"/>
	</g>
	<path class="st3" d="M668.2,1470.2c0,0,6.3,5.6,11.2,6.8c4.8,1.2,10.3,15,11.2,17c0.9,2-4.6-0.9-6.8-4.2c-2.2-3.4-3.7-4.7-4.3-3.9
		c-0.6,0.7,0.4,9.9,4,15c3.7,5.1,5.8,9.6,3.2,9.3s-18.3-4.1-21.5-13.6c-3.2-9.5-0.9-9.8-8.2-19.6
		C649.5,1467.3,668.2,1470.2,668.2,1470.2z"/>
	<path class="st3" d="M584.5,1239.1c0,0-38.3,3.8-41.3,28.7c-3.1,24.9,36.7,126.2,42.4,135.3c10.4,16.7,71.4,73.9,71.4,73.9
		l11.3-6.8c0,0-43.3-73.3-50-80.2C607.6,1379.3,597.4,1247.7,584.5,1239.1z"/>
	<path class="st8" d="M604.1,1286.6c0,0,3.9-64.1-45.2-48.6c-49.1,15.5,7.6,125.8,7.6,125.8s28.8-1.4,39-26.6L604.1,1286.6z"/>
	<rect x="683.6" y="1657.6" class="st15" width="343.2" height="10.6"/>
	<rect x="683.6" y="1665.6" class="st15" width="16.1" height="34.1"/>
	<rect x="1008.4" y="1657.6" class="st15" width="18.3" height="42.2"/>
</g>
<g>
	<g>
		<path class="st0" d="M1871.3,1446.2h-628.4c-37.6,0-68-30.5-68-68V601c0-37.6,30.5-68,68-68h628.4c37.6,0,68,30.5,68,68v777.1
			C1939.3,1415.7,1908.8,1446.2,1871.3,1446.2z"/>
		<rect x="1476.1" y="473.1" class="st0" width="162" height="82.9"/>
		<path class="st0" d="M1568.6,1526.5h-23c-21.4,0-38.8-17.4-38.8-38.8v-64.7c0-21.4,17.4-38.8,38.8-38.8h23
			c21.4,0,38.8,17.4,38.8,38.8v64.7C1607.4,1509.1,1590,1526.5,1568.6,1526.5z"/>
		<path class="st16" d="M1913.6,619.8v736.3c0,35.3-28.6,63.9-63.9,63.9h-251c-7,0-12.7,5.7-12.7,12.7v47.7
			c0,15.2-12.3,27.5-27.5,27.5h-3c-15.2,0-27.5-12.3-27.5-27.5v-45.6c0-8.1-6.6-14.7-14.7-14.7h-248.9c-35.3,0-63.9-28.6-63.9-63.9
			V619.8c0-35.3,28.6-63.9,63.9-63.9h585.2C1885,555.9,1913.6,584.5,1913.6,619.8z"/>
		<path class="st2" d="M1913.6,619.8v736.3c0,35.3-28.6,63.9-63.9,63.9h-251c-7,0-12.7,5.7-12.7,12.7v47.7
			c0,15.2-12.3,27.5-27.5,27.5h-3c-15.2,0-27.5-12.3-27.5-27.5v-45.6c0-8.1-6.6-14.7-14.7-14.7h-248.9c-35.3,0-63.9-28.6-63.9-63.9
			v-93.5C1200.6,1262.7,1696.1,1056.5,1913.6,619.8z"/>
		<g>
			<g>
				<path class="st0" d="M1559.7,1204.1c-61,0-118.4-23.8-161.5-66.9c-43.1-43.1-66.9-100.5-66.9-161.5c0-61,23.8-118.4,66.9-161.5
					c43.1-43.1,100.5-66.9,161.5-66.9c61,0,118.4,23.8,161.5,66.9c43.1,43.1,66.9,100.5,66.9,161.5c0,61-23.8,118.4-66.9,161.5
					C1678,1180.3,1620.7,1204.1,1559.7,1204.1z M1559.7,768.3c-55.4,0-107.5,21.6-146.6,60.7c-39.2,39.2-60.7,91.2-60.7,146.6
					s21.6,107.5,60.7,146.6s91.2,60.7,146.6,60.7c55.4,0,107.5-21.6,146.6-60.7c39.2-39.2,60.7-91.2,60.7-146.6
					s-21.6-107.5-60.7-146.6C1667.1,789.9,1615.1,768.3,1559.7,768.3z"/>
			</g>
			<polygon class="st0" points="1707.2,938.5 1596.9,938.5 1596.9,828.2 1522.4,828.2 1522.4,938.5 1412.2,938.5 1412.2,1013 
				1522.4,1013 1522.4,1123.2 1596.9,1123.2 1596.9,1013 1707.2,1013 			"/>
		</g>
	</g>
	<g>
		<path class="st3" d="M2184.3,1237c-12,36-25.8,66.8-41,82.7c-14.8,15.5-25.2,35.6-32.4,56.4c-18.6,54-16.1,113.2-16.1,113.2
			l-204.5-163.6c0,0-60.8-204.8-55.3-244.1c8.1-57.3-12.6-161.2-9.8-184.1c2.1-17-3-99.7-2.9-105.9c0-2.7,5.4-8.5,13.8-11.2
			c6.8-2.2,20.4,0.7,27.7,13.2c36.7,63.4,33.5,114.1,34.3,116c22.1,50.7,19,94.6,33.3,101.4c0.5,0.2,1.2-0.2,2.1-1.2
			c15-18.3,77.4-227.7,90.7-236c5.4-3.4,33.7,37,66.4,87.7c11.8,18.3,24.2,38.1,36.3,57.6c2.2,3.6,4.5,7.2,6.7,10.8
			c2.1,3.3,3.7,6.9,4.9,10.5c0.2,0.6,0.4,1.3,0.6,2c9,30.7-6.6,69.8,5,89.2c0.3,0.5,0.7,1.1,1,1.6c1.8,2.5,4.1,4.6,6.8,6.3
			c9.4,6.2,23.2,8.5,34.4,9.2c10.7,0.7,19,0,19,0S2214.5,1146.6,2184.3,1237z"/>
		<path class="st3" d="M2115.5,1705.5l-256.4,1.8l-12.9,0c22.4-181.9,44.1-381.5,44.1-381.5s199.5-29.8,210.5,89.4v0
			C2100.8,1415.2,2085.2,1566.3,2115.5,1705.5z"/>
		<path class="st3" d="M2130.1,705.7l-26.4,89.6l-25.9,87.9c-1.8,4.6-4.9,7-8.8,7.8c-12.2,2.7-32.2-9.6-46.6-15.4l-1.5-0.6
			c-19-7.6-28.3-29.3-20.8-48.3l45.9-115l0,0l13.6-34.1c7.6-19,29.3-28.3,48.3-20.8l1.5,0.6C2128.4,665,2137.7,686.7,2130.1,705.7z"
			/>
		<path class="st17" d="M1822.4,795.1l3.4,48.6c0,0,11,0.8,16.3-4.3C1847.3,834.3,1839.4,792.3,1822.4,795.1z"/>
		<g class="st18">
			<path class="st19" d="M2145,1033.2l-10.8,9.3c-0.9,0.8-1.9,1.5-2.8,2.2c-13.6,9.1-32.3,5.4-43.2-9.2l-1.3-1.7
				c-11.7-15.7-10.1-38.1,3.6-49.9l36.4-31.4l2.6-2.3l5.8-5c1.2-1,2.4-1.9,3.7-2.7c9,30.7-6.6,69.8,5,89.2
				C2144.3,1032.1,2144.6,1032.7,2145,1033.2z"/>
			<path class="st19" d="M2181.3,1081.1l-31.4,21.8c-9.5,6.6-22.8,3.2-29.5-7.7l-2.5-4c-6.7-10.8-4.3-25.1,5.2-31.7l28.7-19.9
				c9.4,6.2,23.2,8.5,34.4,9.2l0.4,0.6C2193.2,1060.2,2190.8,1074.4,2181.3,1081.1z"/>
			<path class="st19" d="M2138.4,940.5l-26.5,17.7c-18.2,12.2-42.9,6.8-54.8-12l-6.1-9.6c-11.4-18-7.1-42.2,9.4-54.8l13.7-9.2
				l16.5-11.1c11.8,18.3,24.2,38.1,36.3,57.6c2.2,3.6,4.5,7.2,6.7,10.8C2135.6,933.3,2137.2,936.8,2138.4,940.5z"/>
		</g>
		<g>
			<path class="st3" d="M2194.6,991.1l-6.6,5.2l-44.1,35.3c-1,0.8-2.1,1.6-3.2,2.3c-15.2,9.7-35.8,6.5-47.3-7.9l-1.4-1.7
				c-12.4-15.4-9.8-38.2,5.6-50.5l41.1-32.9l3-2.4l6.6-5.2c15.4-12.4,38.2-9.8,50.5,5.6l1.4,1.7C2212.6,956,2210,978.7,2194.6,991.1
				z"/>
			<path class="st20" d="M2154.2,1005.4c-7.4,5.9-20.7,16.4-28.5,20.2c-2.2,1.1-6.8,1.2-12.2-1.9c-3.2-1.8-6.7-4.8-10-9.4
				c-1.6-2.2-3-4.3-4.1-6.7c-1.2-2.8-2.1-5.7-2.5-8.7c-0.4-2.7,0.6-5.6,2.8-7.7c0,0,0,0,0,0c7.3-6.9,17.3-15.7,26.6-21.8
				c6.4-4.2,14.6-3.4,18.8,2l2,2.5l10.2,13C2161.6,992.4,2160.2,1000.6,2154.2,1005.4z"/>
			<path class="st17" d="M2154.2,1005.4c-7.4,5.9-20.7,16.4-28.5,20.2c-2.2,1.1-6.8,1.2-12.2-1.9c-0.7-0.8-1.5-1.8-2.2-2.8
				c-1.6-2.2-3-4.3-4.1-6.7c-1.2-2.8-2.1-5.7-2.5-8.7c-0.4-2.7,0.6-5.6,2.8-7.7c0,0,0,0,0,0c7.3-6.9,17.3-15.7,26.6-21.8
				c4.1-2.7,8.9-3.3,13-2l10.2,13C2161.6,992.4,2160.2,1000.6,2154.2,1005.4z"/>
		</g>
		<g>
			<path class="st3" d="M2194.6,1069.1l-35.3,23c-10.7,7-25.3,3.9-32.3-6.8l-2.6-4c-7-10.7-3.9-25.3,6.8-32.3l35.3-23
				c10.7-7,25.3-3.9,32.3,6.8l2.6,4C2208.4,1047.5,2205.3,1062.1,2194.6,1069.1z"/>
			<path class="st20" d="M2173,1073.9c-6.5,4.2-18.3,11.7-24.9,14.2c-2.4,0.9-8,0.4-13.3-5c-1.3-1.3-2.5-2.9-3.7-4.8
				c-1.1-1.8-2-3.5-2.7-5.4c-0.8-2.2-1.2-4.5-1.3-6.9c-0.1-2.1,1-4.3,3-5.8c0,0,0,0,0,0c6.5-5,15.5-11.3,23.5-15.6
				c5.6-2.9,12.1-1.9,15.1,2.5l2.1,3.2l6.4,9.5C2180.2,1064.2,2178.3,1070.5,2173,1073.9z"/>
			<path class="st17" d="M2173,1073.9c-6.5,4.2-18.3,11.7-24.9,14.2c-2.4,0.9-8,0.4-13.3-5c-1-1.6-1.9-3.3-2.5-5.1
				c-0.8-2.2-1.2-4.5-1.3-6.9c-0.1-2.1,1-4.3,3-5.8c0,0,0,0,0,0c6.5-5,15.5-11.3,23.6-15.5c4.6-2.4,9.9-2.2,13.3,0.5l6.4,9.5
				C2180.2,1064.2,2178.3,1070.5,2173,1073.9z"/>
		</g>
		<g>
			<path class="st3" d="M2169.4,917.2c-0.2,0.2-0.5,0.4-0.7,0.6l-46.6,29.4c-20.5,12.9-47.5,8.3-60-10.3l-6.4-9.5
				c-12-17.9-6.5-42.4,12.1-55.7l15.4-9.7l31.2-19.7c20.5-12.9,47.5-8.3,60,10.3l6.4,9.5C2192.7,879.7,2187.4,903.7,2169.4,917.2z"
				/>
			<path class="st20" d="M2141.6,910.6l-21.1,19.1c0,0-0.1,0-0.1,0.1c-0.9,0.6-1.8,1.1-2.8,1.6c-0.4,0.2-0.8,0.4-1.2,0.6
				c-0.2,0.1-0.3,0.1-0.5,0.2c-2.7,0.8-5.5-1.5-5.2-4.4c0.7-5.8-0.6-11.9-4-17.2l-1.3-2c0,0,0,0,0-0.1l-4.2-6.4
				c-3.3-5.1-8-8.7-13.3-10.8c-0.6-0.3-1.3-0.5-1.9-0.7c-6-1.8-7.2-9.9-2-13.3c0,0,0.1-0.1,0.1-0.1l25.8-12.8
				c6.1-4,14.2-0.9,18.2,5.2l4.7,7.3l10.1,15.5C2146.9,898.5,2147.7,906.6,2141.6,910.6z"/>
			<path class="st17" d="M2141.6,910.6l-21.1,19.1c0,0-0.1,0-0.1,0.1c-0.5,0.3-2.3,1.2-4.5,2.3c-2.7,0.8-5.5-1.5-5.2-4.4
				c0.7-5.8-0.6-11.9-4-17.2l-1.3-2c0,0,0,0,0-0.1l-4.2-6.4c-3.3-5.1-8-8.7-13.3-10.8c0.5-1.6,1.4-3,3-4c0,0,0.1-0.1,0.1-0.1
				l25.8-12.8c5.1-3.4,11.7-1.7,16,2.5l10.1,15.5C2146.9,898.5,2147.7,906.6,2141.6,910.6z"/>
		</g>
		<path class="st19" d="M1944.1,1055.8c0,0,60.8,83.9,76.5,122.8c21.1,52.4-0.5,128.7-0.5,128.7s43.6-70.2,28.9-115.7
			C2029,1129.1,1989.1,1106.4,1944.1,1055.8z"/>
	</g>
	<path class="st0" d="M1628.9,1636.4h201.8v19.1h-201.8c-44,0-79.9-35.8-79.9-79.9v-67.8h19.1v67.8
		C1568.1,1609.2,1595.4,1636.4,1628.9,1636.4z"/>
	<path class="st0" d="M1985.6,1499.8v75.9c0,44-35.8,79.9-79.9,79.9h-141.9v-19.1h141.9c33.5,0,60.8-27.3,60.8-60.8v-75.9H1985.6z"
		/>
	<path class="st2" d="M1628.9,1643.1h201.8v5.7h-201.8c-40.3,0-73.2-32.8-73.2-73.2v-67.8h5.7v67.8
		C1561.4,1612.8,1591.7,1643.1,1628.9,1643.1z"/>
	<path class="st2" d="M1978.9,1499.8v75.9c0,40.3-32.8,73.2-73.2,73.2h-141.9v-5.7h141.9c37.2,0,67.4-30.3,67.4-67.4v-75.9H1978.9z"
		/>
	<g>
		<path class="st0" d="M2049.6,1514.9h-141.4c-6.3,0-11.5-5.2-11.5-11.5v-37.1c0-6.3,5.2-11.5,11.5-11.5h141.4
			c6.3,0,11.5,5.2,11.5,11.5v37.1C2061.1,1509.7,2055.9,1514.9,2049.6,1514.9z"/>
		<rect x="1945" y="1454.8" class="st15" width="67.8" height="60.1"/>
	</g>
</g>
<g>
	<path class="st7" d="M1141,1707.5h42.7c-0.3-2.2-1.4-9-3.4-15.3c-0.7-2.2-1.5-4.3-2.4-6.1c-4.2-8.3-30.5-3-30.5-3
		s-2.4,2.1-4.4,10.1C1142.1,1696.7,1141.3,1701.4,1141,1707.5z"/>
	<path class="st8" d="M1219.3,1055.6c0,0,34,6,41.7,26s51.1,344.3,51.1,344.3s-21.5,17-67.7,10.9
		C1198.3,1430.8,1219.3,1055.6,1219.3,1055.6z"/>
	<path class="st7" d="M1269.9,1694.1c0.1,5.8,0.8,11.3,3,13.5h84.4c-1.1-3.1-4.1-7.6-12.8-9.1c-9.8-1.6-25.2-6.3-34.2-15.8
		c-3.2-3.4-5.6-7.3-6.6-12c-4-17.7-32.8,5.4-32.8,5.4S1269.7,1685.4,1269.9,1694.1z"/>
	<path class="st7" d="M1306.3,1685.5c-9.4,3-27.5,12.2-38.9,7.9c-7.4-2.8-48.8-122.5-51.5-174.8c-0.2-3.8-0.9-9.1-2.1-15.6
		c-2.5-13.5-6.7-32.1-11.7-52.6c-13.2-54.9-31.2-123.6-30.8-145.5c0.6-34.1,101.5-7.1,101.5-7.1s6.9,27.9,8.3,68.4
		c2.7,80.3,10.3,216,30.8,310.2C1312.8,1680.3,1310.2,1684.2,1306.3,1685.5z"/>
	<path class="st6" d="M1236.2,1305l-53.4,386.7c0,0-23.4,5.6-41.7,1.1c0,0-15.6-205.7-14.3-255.4c1.3-49.7-11.2-133,2.9-142.2
		S1236.2,1305,1236.2,1305z"/>
	<path class="st0" d="M1123,1073.3c0,0,56.1-36.3,96.3-17.7c6.4,3,13.7,11.2,19,17c14.5,16,42.9,270.5,42.9,270.5
		s-80.6,27.3-158.2-9.3V1073.3z"/>
	<path class="st8" d="M1222.5,1054.7c0,0,56.8,23.3,64.4,41.1s32.7,127.6,32.7,140.5s-43.5,2.9-50.5-17.9
		c-5.8-17.2-25.4-70.2-35.8-103.7L1222.5,1054.7z"/>
	<g>
		<path class="st3" d="M1210.7,1072.4c-12.4,2.4-30.6-0.2-43.9-8.9c6-14.4,8.5-25.7,9.4-33.1c0.1-0.4,0.1-0.8,0.1-1.1
			c0.4-3.8,0.3-6.4,0.2-7.6h32c0,0,8.8,4,8.8,6.8c0,1.5,0,2.9,0,4.2c0.1,3.7,0.2,6.9,0.4,9.7c0.6,9,1.6,13.2,1.6,13.2
			S1223.2,1070,1210.7,1072.4z"/>
		<path class="st21" d="M1217.7,1042.4c-24.3,4.7-38.4-8.6-41.5-12c-0.4-0.5-0.7-0.8-0.7-0.8c0.3-0.1,0.5-0.2,0.8-0.4
			c9-3.7,29.5-0.8,41,3.4C1217.3,1036.4,1217.5,1039.6,1217.7,1042.4z"/>
		<path class="st3" d="M1168.2,1016.4c4.3,23.3,34.5,22.6,47.5,21.1c3.7-0.4,6-0.9,6-0.9c4.1-1.1,6.4-7.6,7.5-16.1
			c2.1-16.9-0.6-41.6-3.4-48c-4.3-9.5-12.4-19.8-42.7-12.4C1152.7,967.6,1162.6,986.5,1168.2,1016.4z"/>
		<path class="st7" d="M1226.9,959.6c-4.1-5.7-12.9-12.8-20.9-17.1c-17.2-9.3-39.1,0.3-39.2,0.3c-24.8,10.9-31.2,29.8-18.1,59.4
			c13.9,31.2,27.1,27.7,27.1,27.7s-2.8-1.7-2.6-11.5c0-0.6,0-1,0.1-1.4c0.1-2-0.6-4-2.1-5.3c-3.1-2.7-4.6-11.1-2-13.4
			c3.1-2.8,7.5,0.6,8.9,3.2c1.2,1.8,3.4,2.5,5.4,1.2c7.7-4.9,2.7-14.6,10.1-20.6c7.4-6,22.3-1,33.4-5.7
			C1241.4,971.1,1230,963.9,1226.9,959.6z"/>
	</g>
	<path class="st8" d="M1230.3,1449.8c-4.9,1.3-9.7,2.3-14.5,3.1c-4.2,0.7-8.5,1.3-12.7,1.6c-24,2.1-48.1-1.3-76.3-9.4
		c-6.3-1.8-12.9-3.9-19.7-6.2c-0.7-0.2,1.9-74.7,4.8-151.6c0.3-7.9,0.6-15.9,0.9-23.8c0.1-3.4,0.3-6.7,0.4-10
		c2.7-68,5.4-129.3,5.9-132.6c1.3-7.5,2.5-13.9,3.8-19.4c3.8-16.1,8.6-24.9,19-32.5c1-0.8,9.3-5,16.7-8.6c6.1-3,11.5-5.7,11.5-5.7
		c0,0,0,0,0,0c2.4,1.2,5.3,6.7,8.4,14.5c5.6,14.3,11.6,36.3,15.8,52.6c0,0,0,0.1,0,0.1c0,0,0,0,0,0c2.7,10.6,4.6,18.8,5.2,21.2
		c0.9,4,2.2,11.7,3.6,22.2c2,14.3,4.3,33.6,6.8,55.6c0.3,2.3,0.5,4.5,0.8,6.8c0.3,2.6,0.6,5.3,0.9,8c0.1,0.9,0.2,1.7,0.3,2.6
		c1,8.7,1.9,17.7,2.9,26.8c0.8,7.5,12.2,13,13,20.7c0.5,4.5,1.4,46.1,2.6,59.3C1231.3,1354.6,1230.7,1445.4,1230.3,1449.8z"/>
	<path class="st4" d="M1147.6,1148.3c0,0.2-1.9,68.7,49.6,77.1c51.6,8.3,17.3,10.5,17.3,10.5s-97-4.1-98.6-6.7
		C1114.3,1226.7,1147.6,1148.3,1147.6,1148.3z"/>
	<path class="st4" d="M1191.2,1254.8c0,0-1,0.7-2.8,1.9c0,0-0.1,0-0.1,0.1c-7.9,5-31.2,18.7-65.2,27.9c-3.6,1-7.3,1.9-11.1,2.7
		c0.3-7.9,0.6-15.9,0.9-23.8c-4.5-0.4-8.8-0.9-12.8-1.8c0.1-1,0.3-2.1,0.4-3.1c4.3-1.8,8.6-3.5,12.8-5.1c3.4-1.3,6.6-2.6,9.7-3.7
		c14-5.3,24.3-8.9,24.3-8.9l41.3,13.1L1191.2,1254.8z"/>
	<path class="st8" d="M1202.1,1253.7c0,0-5.3,1.3-13.8,3c0,0-0.1,0-0.1,0c-15.6,3.1-41.8,7.5-65.2,7.3c-3.5,0-6.8-0.2-10.1-0.4
		c-4.5-0.4-8.8-0.9-12.8-1.8c-8.6-1.8-15.7-4.9-20.4-9.6c-34.8-35.5,19-162.8,30.3-175.2c13.2-14.5,37.3-19.5,50.7-21.3
		c0.6-0.1,1.1-0.1,1.6-0.2c4.7-0.6,7.7-0.7,7.9-0.7c0,0,0,0,0,0s-1,3.4-2.8,9.1c-0.7,2.2-1.5,4.8-2.3,7.6
		c-8.2,26.8-24,79.5-30.9,109.2c-2.6,10.9-3.9,18.7-3.3,21c2.7,10.1,30.9,15.4,48.7,17.7c7.4,1,13.1,1.4,14.3,1.5c0.1,0,0.2,0,0.3,0
		l1,4.2l2.5,10.1l2.4,10L1202.1,1253.7z"/>
	<polygon class="st7" points="1299.3,1314.7 1179.6,1309.7 1203.9,1160.6 1323.5,1165.6 	"/>
	<path class="st3" d="M1194.1,1220.8c0,0,23.3-1.6,24.5,3.8c2.7,12.7-20,23-27.4,22.3C1183.8,1246.2,1188.7,1219.9,1194.1,1220.8z"
		/>
	<path class="st3" d="M1317,1195.9c0,0-22.3-7-24.7-2c-5.6,11.7,14.1,27.1,21.5,28.1S1322.4,1196.3,1317,1195.9z"/>
	<path class="st4" d="M1172.6,1047.3c0,0-11.1,1.9-16,9c0,0,37.9,66.3,37.7,65.7S1181.9,1055.5,1172.6,1047.3z"/>
	<path class="st4" d="M1218.2,1048.2c3.2,1.2,9.4,7.6,10.8,11.1l4.4,55.5c0,0-9.3-40.7-14-59.2
		C1218.1,1050.9,1218.3,1049.5,1218.2,1048.2z"/>
	<path class="st22" d="M1243.6,1162.3c0,0,0.9-4.1,6.4-3.7c5.4,0.5,36,2,36,2s5.9-0.1,5.4,3.7L1243.6,1162.3z"/>
</g>
</svg>
